<svg width="351" height="177" viewBox="0 0 351 177" fill="none" xmlns="http://www.w3.org/2000/svg">
<g filter="url(#filter0_di_99_151)">
<g clip-path="url(#paint0_diamond_99_151_clip_path)" data-figma-skip-parse="true"><g transform="matrix(0 0.0845 -0.1715 0 175.5 84.5)"><rect x="0" y="0" width="1011.83" height="1005.83" fill="url(#paint0_diamond_99_151)" opacity="1" shape-rendering="crispEdges"/><rect x="0" y="0" width="1011.83" height="1005.83" transform="scale(1 -1)" fill="url(#paint0_diamond_99_151)" opacity="1" shape-rendering="crispEdges"/><rect x="0" y="0" width="1011.83" height="1005.83" transform="scale(-1 1)" fill="url(#paint0_diamond_99_151)" opacity="1" shape-rendering="crispEdges"/><rect x="0" y="0" width="1011.83" height="1005.83" transform="scale(-1)" fill="url(#paint0_diamond_99_151)" opacity="1" shape-rendering="crispEdges"/></g></g><path d="M23.3142 39.4294C23.4722 42.5167 25.4473 58.1904 24.1833 59.6153C22.0501 62.0692 5.85417 62.0692 4.19507 59.0611C3.56304 57.8737 4.6691 20.431 4.6691 15.9189C4.6691 12.4358 3.72105 2.93662 7.82929 1.74922C11.7795 0.640982 17.4679 0.640982 21.6551 0.561818C26.4744 0.482659 31.4517 0.7993 36.113 2.22418C54.8371 8.08203 53.81 30.4052 35.9549 37.0546C31.9257 38.5587 27.5805 38.8753 23.3142 39.4294ZM21.6551 24.5473C38.6411 26.1305 34.5329 9.82355 21.6551 14.8898V24.5473Z" data-figma-gradient-fill="{&#34;type&#34;:&#34;GRADIENT_DIAMOND&#34;,&#34;stops&#34;:[{&#34;color&#34;:{&#34;r&#34;:0.29459026455879211,&#34;g&#34;:0.42263814806938171,&#34;b&#34;:0.80349934101104736,&#34;a&#34;:1.0},&#34;position&#34;:0.31999999284744263},{&#34;color&#34;:{&#34;r&#34;:0.094117648899555206,&#34;g&#34;:0.24705882370471954,&#34;b&#34;:0.53333336114883423,&#34;a&#34;:1.0},&#34;position&#34;:1.0}],&#34;stopsVar&#34;:[{&#34;color&#34;:{&#34;r&#34;:0.29459026455879211,&#34;g&#34;:0.42263814806938171,&#34;b&#34;:0.80349934101104736,&#34;a&#34;:1.0},&#34;position&#34;:0.31999999284744263},{&#34;color&#34;:{&#34;r&#34;:0.094117648899555206,&#34;g&#34;:0.24705882370471954,&#34;b&#34;:0.53333336114883423,&#34;a&#34;:1.0},&#34;position&#34;:1.0}],&#34;transform&#34;:{&#34;m00&#34;:2.1002693535070519e-14,&#34;m01&#34;:-343.0,&#34;m02&#34;:347.0,&#34;m10&#34;:169.0,&#34;m11&#34;:1.0348265891109779e-14,&#34;m12&#34;:-1.0348265891109779e-14},&#34;opacity&#34;:1.0,&#34;blendMode&#34;:&#34;NORMAL&#34;,&#34;visible&#34;:true}" style=""/>
<g clip-path="url(#paint1_diamond_99_151_clip_path)" data-figma-skip-parse="true"><g transform="matrix(0 0.0845 -0.1715 0 175.5 84.5)"><rect x="0" y="0" width="1011.83" height="1005.83" fill="url(#paint1_diamond_99_151)" opacity="1" shape-rendering="crispEdges"/><rect x="0" y="0" width="1011.83" height="1005.83" transform="scale(1 -1)" fill="url(#paint1_diamond_99_151)" opacity="1" shape-rendering="crispEdges"/><rect x="0" y="0" width="1011.83" height="1005.83" transform="scale(-1 1)" fill="url(#paint1_diamond_99_151)" opacity="1" shape-rendering="crispEdges"/><rect x="0" y="0" width="1011.83" height="1005.83" transform="scale(-1)" fill="url(#paint1_diamond_99_151)" opacity="1" shape-rendering="crispEdges"/></g></g><path d="M72.96 41.3293C77.4633 41.9626 83.3886 41.3293 87.9709 40.8543C89.472 40.696 91.0521 39.9836 92.5531 40.0627C96.6614 40.3002 96.0294 46.7122 95.8713 49.5619C95.7133 52.4908 95.7923 55.9739 95.1603 58.8237C95.0023 59.5361 94.7653 60.3277 94.1332 60.8027C93.3432 61.3568 79.5964 61.1193 77.4633 61.1193C74.3031 61.1193 71.1429 60.3277 67.9827 60.2485C65.9286 60.1694 59.5292 60.5652 58.1071 59.7736C56.685 58.982 55.974 57.2405 55.658 55.7364C54.7889 51.9367 55.421 48.0579 55.5 44.2582C55.737 30.801 55.5 17.2646 57.1591 3.80738C57.2381 2.85746 57.6331 1.9867 58.4231 1.35342C61.3463 -0.942224 73.9871 0.878459 77.9373 0.957618C82.1245 1.03678 86.4698 0.7993 90.657 0.482659C92.3161 0.324341 96.4244 -0.783901 97.3724 1.1951C98.0045 2.46166 97.7675 6.81547 97.7675 8.39867C97.7675 10.3777 97.8465 15.2856 96.1084 16.5522C93.4222 18.452 74.9351 13.9399 73.829 17.0271C73.671 17.5021 73.276 18.927 73.355 19.4019C73.9871 22.1725 91.2101 19.1644 93.1062 21.8559C93.8962 22.885 93.4222 27.1596 93.3432 28.5845C93.3432 29.9302 93.5012 34.0465 92.7902 34.9965C91.2891 36.8963 82.1245 35.9464 79.6754 35.7089C77.5423 35.4714 75.1721 36.263 73.197 35.2339C72.644 37.213 72.328 39.3503 72.96 41.3293Z" data-figma-gradient-fill="{&#34;type&#34;:&#34;GRADIENT_DIAMOND&#34;,&#34;stops&#34;:[{&#34;color&#34;:{&#34;r&#34;:0.29459026455879211,&#34;g&#34;:0.42263814806938171,&#34;b&#34;:0.80349934101104736,&#34;a&#34;:1.0},&#34;position&#34;:0.31999999284744263},{&#34;color&#34;:{&#34;r&#34;:0.094117648899555206,&#34;g&#34;:0.24705882370471954,&#34;b&#34;:0.53333336114883423,&#34;a&#34;:1.0},&#34;position&#34;:1.0}],&#34;stopsVar&#34;:[{&#34;color&#34;:{&#34;r&#34;:0.29459026455879211,&#34;g&#34;:0.42263814806938171,&#34;b&#34;:0.80349934101104736,&#34;a&#34;:1.0},&#34;position&#34;:0.31999999284744263},{&#34;color&#34;:{&#34;r&#34;:0.094117648899555206,&#34;g&#34;:0.24705882370471954,&#34;b&#34;:0.53333336114883423,&#34;a&#34;:1.0},&#34;position&#34;:1.0}],&#34;transform&#34;:{&#34;m00&#34;:2.1002693535070519e-14,&#34;m01&#34;:-343.0,&#34;m02&#34;:347.0,&#34;m10&#34;:169.0,&#34;m11&#34;:1.0348265891109779e-14,&#34;m12&#34;:-1.0348265891109779e-14},&#34;opacity&#34;:1.0,&#34;blendMode&#34;:&#34;NORMAL&#34;,&#34;visible&#34;:true}" style=""/>
<g clip-path="url(#paint2_diamond_99_151_clip_path)" data-figma-skip-parse="true"><g transform="matrix(0 0.0845 -0.1715 0 175.5 84.5)"><rect x="0" y="0" width="1011.83" height="1005.83" fill="url(#paint2_diamond_99_151)" opacity="1" shape-rendering="crispEdges"/><rect x="0" y="0" width="1011.83" height="1005.83" transform="scale(1 -1)" fill="url(#paint2_diamond_99_151)" opacity="1" shape-rendering="crispEdges"/><rect x="0" y="0" width="1011.83" height="1005.83" transform="scale(-1 1)" fill="url(#paint2_diamond_99_151)" opacity="1" shape-rendering="crispEdges"/><rect x="0" y="0" width="1011.83" height="1005.83" transform="scale(-1)" fill="url(#paint2_diamond_99_151)" opacity="1" shape-rendering="crispEdges"/></g></g><path d="M140.347 38.0046C143.349 41.4084 145.641 45.2873 148.485 48.7703C149.591 50.116 153.462 53.7574 152.672 55.5781C152.356 56.3697 151.724 56.7655 151.013 57.1613C149.117 58.2695 137.424 61.8317 135.449 61.1985C132.131 60.1694 127.153 46.7913 122.571 42.8333C122.492 45.3664 123.44 59.2986 122.887 60.2485C122.176 61.3568 114.197 60.8818 112.775 60.6443C110.167 60.2485 107.639 60.2485 105.032 60.2485C104.005 60.2485 104.321 58.1112 104.321 57.4779C104.163 49.4036 104.953 41.5668 105.585 33.5716C105.98 28.6637 105.822 5.07395 107.876 2.61998C108.903 1.35342 113.012 1.11594 114.671 0.957618C121.86 0.324341 129.998 0.324341 137.108 1.51174C156.701 4.83646 158.36 31.1176 140.347 38.0046ZM123.519 15.2856C122.966 19.4811 123.282 23.7557 123.045 28.0304C140.505 27.4763 135.686 13.0691 123.519 15.2856Z" data-figma-gradient-fill="{&#34;type&#34;:&#34;GRADIENT_DIAMOND&#34;,&#34;stops&#34;:[{&#34;color&#34;:{&#34;r&#34;:0.29459026455879211,&#34;g&#34;:0.42263814806938171,&#34;b&#34;:0.80349934101104736,&#34;a&#34;:1.0},&#34;position&#34;:0.31999999284744263},{&#34;color&#34;:{&#34;r&#34;:0.094117648899555206,&#34;g&#34;:0.24705882370471954,&#34;b&#34;:0.53333336114883423,&#34;a&#34;:1.0},&#34;position&#34;:1.0}],&#34;stopsVar&#34;:[{&#34;color&#34;:{&#34;r&#34;:0.29459026455879211,&#34;g&#34;:0.42263814806938171,&#34;b&#34;:0.80349934101104736,&#34;a&#34;:1.0},&#34;position&#34;:0.31999999284744263},{&#34;color&#34;:{&#34;r&#34;:0.094117648899555206,&#34;g&#34;:0.24705882370471954,&#34;b&#34;:0.53333336114883423,&#34;a&#34;:1.0},&#34;position&#34;:1.0}],&#34;transform&#34;:{&#34;m00&#34;:2.1002693535070519e-14,&#34;m01&#34;:-343.0,&#34;m02&#34;:347.0,&#34;m10&#34;:169.0,&#34;m11&#34;:1.0348265891109779e-14,&#34;m12&#34;:-1.0348265891109779e-14},&#34;opacity&#34;:1.0,&#34;blendMode&#34;:&#34;NORMAL&#34;,&#34;visible&#34;:true}" style=""/>
<g clip-path="url(#paint3_diamond_99_151_clip_path)" data-figma-skip-parse="true"><g transform="matrix(0 0.0845 -0.1715 0 175.5 84.5)"><rect x="0" y="0" width="1011.83" height="1005.83" fill="url(#paint3_diamond_99_151)" opacity="1" shape-rendering="crispEdges"/><rect x="0" y="0" width="1011.83" height="1005.83" transform="scale(1 -1)" fill="url(#paint3_diamond_99_151)" opacity="1" shape-rendering="crispEdges"/><rect x="0" y="0" width="1011.83" height="1005.83" transform="scale(-1 1)" fill="url(#paint3_diamond_99_151)" opacity="1" shape-rendering="crispEdges"/><rect x="0" y="0" width="1011.83" height="1005.83" transform="scale(-1)" fill="url(#paint3_diamond_99_151)" opacity="1" shape-rendering="crispEdges"/></g></g><path d="M179.716 25.2598C185.405 27.5554 197.966 18.1354 199.151 30.4052C199.309 32.1467 199.546 36.738 198.835 38.1629C196.623 42.3584 182.876 39.5086 180.822 41.5668C179.163 43.2291 182.718 56.9238 181.296 59.7736C180.19 61.9901 176.872 62.1484 174.66 62.3859C172.843 62.5442 166.206 62.94 164.784 62.465C162.888 61.8317 161.545 59.8527 161.545 57.8737C161.545 40.9335 160.202 24.4682 158.859 7.60707C158.701 6.02387 159.491 4.36151 160.913 3.56991C163.994 1.90754 197.176 -0.704742 199.151 1.74922C200.415 3.25326 199.783 9.19027 199.862 11.3276C199.941 13.2274 200.099 15.7606 198.44 17.1063C195.754 19.2436 182.797 17.5021 178.768 19.3228C178.136 20.7476 179.005 23.9141 179.716 25.2598Z" data-figma-gradient-fill="{&#34;type&#34;:&#34;GRADIENT_DIAMOND&#34;,&#34;stops&#34;:[{&#34;color&#34;:{&#34;r&#34;:0.29459026455879211,&#34;g&#34;:0.42263814806938171,&#34;b&#34;:0.80349934101104736,&#34;a&#34;:1.0},&#34;position&#34;:0.31999999284744263},{&#34;color&#34;:{&#34;r&#34;:0.094117648899555206,&#34;g&#34;:0.24705882370471954,&#34;b&#34;:0.53333336114883423,&#34;a&#34;:1.0},&#34;position&#34;:1.0}],&#34;stopsVar&#34;:[{&#34;color&#34;:{&#34;r&#34;:0.29459026455879211,&#34;g&#34;:0.42263814806938171,&#34;b&#34;:0.80349934101104736,&#34;a&#34;:1.0},&#34;position&#34;:0.31999999284744263},{&#34;color&#34;:{&#34;r&#34;:0.094117648899555206,&#34;g&#34;:0.24705882370471954,&#34;b&#34;:0.53333336114883423,&#34;a&#34;:1.0},&#34;position&#34;:1.0}],&#34;transform&#34;:{&#34;m00&#34;:2.1002693535070519e-14,&#34;m01&#34;:-343.0,&#34;m02&#34;:347.0,&#34;m10&#34;:169.0,&#34;m11&#34;:1.0348265891109779e-14,&#34;m12&#34;:-1.0348265891109779e-14},&#34;opacity&#34;:1.0,&#34;blendMode&#34;:&#34;NORMAL&#34;,&#34;visible&#34;:true}" style=""/>
<g clip-path="url(#paint4_diamond_99_151_clip_path)" data-figma-skip-parse="true"><g transform="matrix(0 0.0845 -0.1715 0 175.5 84.5)"><rect x="0" y="0" width="1011.83" height="1005.83" fill="url(#paint4_diamond_99_151)" opacity="1" shape-rendering="crispEdges"/><rect x="0" y="0" width="1011.83" height="1005.83" transform="scale(1 -1)" fill="url(#paint4_diamond_99_151)" opacity="1" shape-rendering="crispEdges"/><rect x="0" y="0" width="1011.83" height="1005.83" transform="scale(-1 1)" fill="url(#paint4_diamond_99_151)" opacity="1" shape-rendering="crispEdges"/><rect x="0" y="0" width="1011.83" height="1005.83" transform="scale(-1)" fill="url(#paint4_diamond_99_151)" opacity="1" shape-rendering="crispEdges"/></g></g><path d="M224.257 41.3293C228.76 41.9626 234.686 41.3293 239.268 40.8543C240.769 40.696 242.349 39.9836 243.85 40.0627C247.958 40.3002 247.326 46.7122 247.168 49.5619C247.01 52.4908 247.089 55.9739 246.457 58.8237C246.299 59.5361 246.062 60.3277 245.43 60.8027C244.64 61.3568 230.893 61.1193 228.76 61.1193C225.6 61.1193 222.44 60.3277 219.28 60.2485C217.226 60.1694 210.826 60.5652 209.404 59.7736C207.982 58.982 207.271 57.2405 206.955 55.7364C206.086 51.9367 206.718 48.0579 206.797 44.2582C207.034 30.801 206.797 17.2646 208.456 3.80738C208.535 2.85746 208.93 1.9867 209.72 1.35342C212.643 -0.942224 225.284 0.878459 229.234 0.957618C233.422 1.03678 237.767 0.7993 241.954 0.482659C243.613 0.324341 247.721 -0.783901 248.669 1.1951C249.301 2.46166 249.064 6.81547 249.064 8.39867C249.064 10.3777 249.143 15.2856 247.405 16.5522C244.719 18.452 226.232 13.9399 225.126 17.0271C224.968 17.5021 224.573 18.927 224.652 19.4019C225.284 22.1725 242.507 19.1644 244.403 21.8559C245.193 22.885 244.719 27.1596 244.64 28.5845C244.64 29.9302 244.798 34.0465 244.087 34.9965C242.586 36.8963 233.422 35.9464 230.972 35.7089C228.839 35.4714 226.469 36.263 224.494 35.2339C223.941 37.213 223.625 39.3503 224.257 41.3293Z" data-figma-gradient-fill="{&#34;type&#34;:&#34;GRADIENT_DIAMOND&#34;,&#34;stops&#34;:[{&#34;color&#34;:{&#34;r&#34;:0.29459026455879211,&#34;g&#34;:0.42263814806938171,&#34;b&#34;:0.80349934101104736,&#34;a&#34;:1.0},&#34;position&#34;:0.31999999284744263},{&#34;color&#34;:{&#34;r&#34;:0.094117648899555206,&#34;g&#34;:0.24705882370471954,&#34;b&#34;:0.53333336114883423,&#34;a&#34;:1.0},&#34;position&#34;:1.0}],&#34;stopsVar&#34;:[{&#34;color&#34;:{&#34;r&#34;:0.29459026455879211,&#34;g&#34;:0.42263814806938171,&#34;b&#34;:0.80349934101104736,&#34;a&#34;:1.0},&#34;position&#34;:0.31999999284744263},{&#34;color&#34;:{&#34;r&#34;:0.094117648899555206,&#34;g&#34;:0.24705882370471954,&#34;b&#34;:0.53333336114883423,&#34;a&#34;:1.0},&#34;position&#34;:1.0}],&#34;transform&#34;:{&#34;m00&#34;:2.1002693535070519e-14,&#34;m01&#34;:-343.0,&#34;m02&#34;:347.0,&#34;m10&#34;:169.0,&#34;m11&#34;:1.0348265891109779e-14,&#34;m12&#34;:-1.0348265891109779e-14},&#34;opacity&#34;:1.0,&#34;blendMode&#34;:&#34;NORMAL&#34;,&#34;visible&#34;:true}" style=""/>
<g clip-path="url(#paint5_diamond_99_151_clip_path)" data-figma-skip-parse="true"><g transform="matrix(0 0.0845 -0.1715 0 175.5 84.5)"><rect x="0" y="0" width="1011.83" height="1005.83" fill="url(#paint5_diamond_99_151)" opacity="1" shape-rendering="crispEdges"/><rect x="0" y="0" width="1011.83" height="1005.83" transform="scale(1 -1)" fill="url(#paint5_diamond_99_151)" opacity="1" shape-rendering="crispEdges"/><rect x="0" y="0" width="1011.83" height="1005.83" transform="scale(-1 1)" fill="url(#paint5_diamond_99_151)" opacity="1" shape-rendering="crispEdges"/><rect x="0" y="0" width="1011.83" height="1005.83" transform="scale(-1)" fill="url(#paint5_diamond_99_151)" opacity="1" shape-rendering="crispEdges"/></g></g><path d="M292.434 57.003C288.405 59.7736 283.191 61.1193 278.292 61.0401C245.664 60.7235 247.323 3.88655 277.502 1.43258C285.64 0.7993 291.96 4.12402 296.306 11.0901C298.281 14.2565 301.836 24.0724 298.123 26.6847C296.859 27.6346 295.12 27.7929 293.619 28.0304C291.486 28.347 285.798 29.1386 283.902 28.6637C280.031 27.7137 282.322 19.7186 279.715 17.977C278.213 16.948 275.685 17.6604 274.421 18.7686C272.288 20.7476 272.13 24.9431 271.972 27.6346C271.735 31.9092 271.261 42.7542 276.001 44.8915C278.292 45.9206 280.11 43.3874 280.9 41.5668C281.374 40.3794 281.848 37.0546 282.717 36.3422C284.139 35.1548 289.274 35.8672 291.17 35.9464C293.461 36.0255 295.753 35.5506 297.965 35.6297C298.755 35.6297 299.545 35.8672 300.019 36.5797C300.888 38.0046 299.94 44.2582 299.624 46.0789C298.834 50.7493 296.306 54.3907 292.434 57.003Z" data-figma-gradient-fill="{&#34;type&#34;:&#34;GRADIENT_DIAMOND&#34;,&#34;stops&#34;:[{&#34;color&#34;:{&#34;r&#34;:0.29459026455879211,&#34;g&#34;:0.42263814806938171,&#34;b&#34;:0.80349934101104736,&#34;a&#34;:1.0},&#34;position&#34;:0.31999999284744263},{&#34;color&#34;:{&#34;r&#34;:0.094117648899555206,&#34;g&#34;:0.24705882370471954,&#34;b&#34;:0.53333336114883423,&#34;a&#34;:1.0},&#34;position&#34;:1.0}],&#34;stopsVar&#34;:[{&#34;color&#34;:{&#34;r&#34;:0.29459026455879211,&#34;g&#34;:0.42263814806938171,&#34;b&#34;:0.80349934101104736,&#34;a&#34;:1.0},&#34;position&#34;:0.31999999284744263},{&#34;color&#34;:{&#34;r&#34;:0.094117648899555206,&#34;g&#34;:0.24705882370471954,&#34;b&#34;:0.53333336114883423,&#34;a&#34;:1.0},&#34;position&#34;:1.0}],&#34;transform&#34;:{&#34;m00&#34;:2.1002693535070519e-14,&#34;m01&#34;:-343.0,&#34;m02&#34;:347.0,&#34;m10&#34;:169.0,&#34;m11&#34;:1.0348265891109779e-14,&#34;m12&#34;:-1.0348265891109779e-14},&#34;opacity&#34;:1.0,&#34;blendMode&#34;:&#34;NORMAL&#34;,&#34;visible&#34;:true}" style=""/>
<g clip-path="url(#paint6_diamond_99_151_clip_path)" data-figma-skip-parse="true"><g transform="matrix(0 0.0845 -0.1715 0 175.5 84.5)"><rect x="0" y="0" width="1011.83" height="1005.83" fill="url(#paint6_diamond_99_151)" opacity="1" shape-rendering="crispEdges"/><rect x="0" y="0" width="1011.83" height="1005.83" transform="scale(1 -1)" fill="url(#paint6_diamond_99_151)" opacity="1" shape-rendering="crispEdges"/><rect x="0" y="0" width="1011.83" height="1005.83" transform="scale(-1 1)" fill="url(#paint6_diamond_99_151)" opacity="1" shape-rendering="crispEdges"/><rect x="0" y="0" width="1011.83" height="1005.83" transform="scale(-1)" fill="url(#paint6_diamond_99_151)" opacity="1" shape-rendering="crispEdges"/></g></g><path d="M334.023 15.6022C334.419 21.7767 334.577 27.9512 335.13 34.0465C335.841 41.5668 337.342 50.9076 337.026 58.3487C337.026 58.8237 336.947 59.2986 336.631 59.6944C335.525 60.961 328.414 61.0401 326.597 61.1193C325.175 61.1985 320.751 61.3568 319.645 60.8027C317.353 59.6944 317.986 53.9949 317.986 51.8576V32.78C317.986 27.5554 317.116 22.3308 317.195 17.1063C315.299 17.3438 306.135 19.0853 305.108 17.977C304.239 17.0271 303.765 3.25326 304.792 2.22418C305.108 1.90754 305.661 1.67006 306.135 1.5909C313.877 0.0868586 322.252 1.03678 330.073 0.640982C334.34 0.4035 338.685 -0.229782 342.951 0.0868586C343.978 0.166018 346.269 0.0868586 346.901 1.11594C347.059 1.43258 346.98 11.6442 346.98 12.99C346.98 18.3728 337.974 15.5231 334.023 15.6022Z" data-figma-gradient-fill="{&#34;type&#34;:&#34;GRADIENT_DIAMOND&#34;,&#34;stops&#34;:[{&#34;color&#34;:{&#34;r&#34;:0.29459026455879211,&#34;g&#34;:0.42263814806938171,&#34;b&#34;:0.80349934101104736,&#34;a&#34;:1.0},&#34;position&#34;:0.31999999284744263},{&#34;color&#34;:{&#34;r&#34;:0.094117648899555206,&#34;g&#34;:0.24705882370471954,&#34;b&#34;:0.53333336114883423,&#34;a&#34;:1.0},&#34;position&#34;:1.0}],&#34;stopsVar&#34;:[{&#34;color&#34;:{&#34;r&#34;:0.29459026455879211,&#34;g&#34;:0.42263814806938171,&#34;b&#34;:0.80349934101104736,&#34;a&#34;:1.0},&#34;position&#34;:0.31999999284744263},{&#34;color&#34;:{&#34;r&#34;:0.094117648899555206,&#34;g&#34;:0.24705882370471954,&#34;b&#34;:0.53333336114883423,&#34;a&#34;:1.0},&#34;position&#34;:1.0}],&#34;transform&#34;:{&#34;m00&#34;:2.1002693535070519e-14,&#34;m01&#34;:-343.0,&#34;m02&#34;:347.0,&#34;m10&#34;:169.0,&#34;m11&#34;:1.0348265891109779e-14,&#34;m12&#34;:-1.0348265891109779e-14},&#34;opacity&#34;:1.0,&#34;blendMode&#34;:&#34;NORMAL&#34;,&#34;visible&#34;:true}" style=""/>
<g clip-path="url(#paint7_diamond_99_151_clip_path)" data-figma-skip-parse="true"><g transform="matrix(0 0.0845 -0.1715 0 175.5 84.5)"><rect x="0" y="0" width="1011.83" height="1005.83" fill="url(#paint7_diamond_99_151)" opacity="1" shape-rendering="crispEdges"/><rect x="0" y="0" width="1011.83" height="1005.83" transform="scale(1 -1)" fill="url(#paint7_diamond_99_151)" opacity="1" shape-rendering="crispEdges"/><rect x="0" y="0" width="1011.83" height="1005.83" transform="scale(-1 1)" fill="url(#paint7_diamond_99_151)" opacity="1" shape-rendering="crispEdges"/><rect x="0" y="0" width="1011.83" height="1005.83" transform="scale(-1)" fill="url(#paint7_diamond_99_151)" opacity="1" shape-rendering="crispEdges"/></g></g><path d="M75.6625 147.038C75.8205 150.125 77.7956 165.799 76.5316 167.224C74.3984 169.677 58.2025 169.677 56.5434 166.669C55.9113 165.482 57.0174 128.039 57.0174 123.527C57.0174 120.044 56.0693 110.545 60.1776 109.357C64.1278 108.249 69.8162 108.249 74.0034 108.17C78.8227 108.091 83.8 108.408 88.4613 109.832C107.185 115.69 106.158 138.013 88.3033 144.663C84.274 146.167 79.9288 146.484 75.6625 147.038ZM74.0034 132.156C90.9894 133.739 86.8812 117.432 74.0034 122.498V132.156Z" data-figma-gradient-fill="{&#34;type&#34;:&#34;GRADIENT_DIAMOND&#34;,&#34;stops&#34;:[{&#34;color&#34;:{&#34;r&#34;:0.29459026455879211,&#34;g&#34;:0.42263814806938171,&#34;b&#34;:0.80349934101104736,&#34;a&#34;:1.0},&#34;position&#34;:0.31999999284744263},{&#34;color&#34;:{&#34;r&#34;:0.094117648899555206,&#34;g&#34;:0.24705882370471954,&#34;b&#34;:0.53333336114883423,&#34;a&#34;:1.0},&#34;position&#34;:1.0}],&#34;stopsVar&#34;:[{&#34;color&#34;:{&#34;r&#34;:0.29459026455879211,&#34;g&#34;:0.42263814806938171,&#34;b&#34;:0.80349934101104736,&#34;a&#34;:1.0},&#34;position&#34;:0.31999999284744263},{&#34;color&#34;:{&#34;r&#34;:0.094117648899555206,&#34;g&#34;:0.24705882370471954,&#34;b&#34;:0.53333336114883423,&#34;a&#34;:1.0},&#34;position&#34;:1.0}],&#34;transform&#34;:{&#34;m00&#34;:2.1002693535070519e-14,&#34;m01&#34;:-343.0,&#34;m02&#34;:347.0,&#34;m10&#34;:169.0,&#34;m11&#34;:1.0348265891109779e-14,&#34;m12&#34;:-1.0348265891109779e-14},&#34;opacity&#34;:1.0,&#34;blendMode&#34;:&#34;NORMAL&#34;,&#34;visible&#34;:true}" style=""/>
<g clip-path="url(#paint8_diamond_99_151_clip_path)" data-figma-skip-parse="true"><g transform="matrix(0 0.0845 -0.1715 0 175.5 84.5)"><rect x="0" y="0" width="1011.83" height="1005.83" fill="url(#paint8_diamond_99_151)" opacity="1" shape-rendering="crispEdges"/><rect x="0" y="0" width="1011.83" height="1005.83" transform="scale(1 -1)" fill="url(#paint8_diamond_99_151)" opacity="1" shape-rendering="crispEdges"/><rect x="0" y="0" width="1011.83" height="1005.83" transform="scale(-1 1)" fill="url(#paint8_diamond_99_151)" opacity="1" shape-rendering="crispEdges"/><rect x="0" y="0" width="1011.83" height="1005.83" transform="scale(-1)" fill="url(#paint8_diamond_99_151)" opacity="1" shape-rendering="crispEdges"/></g></g><path d="M113.774 168.173C112.668 168.253 108.875 168.49 108.085 167.857C106.663 166.59 107.69 151.629 107.848 148.938C108.006 145.85 107.769 142.605 107.848 139.517C108.006 130.572 108.638 120.282 110.06 111.416C110.297 109.912 110.85 109.516 112.352 109.437C115.433 109.199 133.367 108.566 134.315 111.02C134.868 112.366 133.762 118.54 133.446 120.282C131.708 130.097 130.602 140.072 130.049 150.046C129.812 154.4 130.365 162.395 129.417 166.194C129.18 166.986 128.943 167.54 128.152 167.857C127.283 168.253 115.591 168.094 113.774 168.173Z" data-figma-gradient-fill="{&#34;type&#34;:&#34;GRADIENT_DIAMOND&#34;,&#34;stops&#34;:[{&#34;color&#34;:{&#34;r&#34;:0.29459026455879211,&#34;g&#34;:0.42263814806938171,&#34;b&#34;:0.80349934101104736,&#34;a&#34;:1.0},&#34;position&#34;:0.31999999284744263},{&#34;color&#34;:{&#34;r&#34;:0.094117648899555206,&#34;g&#34;:0.24705882370471954,&#34;b&#34;:0.53333336114883423,&#34;a&#34;:1.0},&#34;position&#34;:1.0}],&#34;stopsVar&#34;:[{&#34;color&#34;:{&#34;r&#34;:0.29459026455879211,&#34;g&#34;:0.42263814806938171,&#34;b&#34;:0.80349934101104736,&#34;a&#34;:1.0},&#34;position&#34;:0.31999999284744263},{&#34;color&#34;:{&#34;r&#34;:0.094117648899555206,&#34;g&#34;:0.24705882370471954,&#34;b&#34;:0.53333336114883423,&#34;a&#34;:1.0},&#34;position&#34;:1.0}],&#34;transform&#34;:{&#34;m00&#34;:2.1002693535070519e-14,&#34;m01&#34;:-343.0,&#34;m02&#34;:347.0,&#34;m10&#34;:169.0,&#34;m11&#34;:1.0348265891109779e-14,&#34;m12&#34;:-1.0348265891109779e-14},&#34;opacity&#34;:1.0,&#34;blendMode&#34;:&#34;NORMAL&#34;,&#34;visible&#34;:true}" style=""/>
<g clip-path="url(#paint9_diamond_99_151_clip_path)" data-figma-skip-parse="true"><g transform="matrix(0 0.0845 -0.1715 0 175.5 84.5)"><rect x="0" y="0" width="1011.83" height="1005.83" fill="url(#paint9_diamond_99_151)" opacity="1" shape-rendering="crispEdges"/><rect x="0" y="0" width="1011.83" height="1005.83" transform="scale(1 -1)" fill="url(#paint9_diamond_99_151)" opacity="1" shape-rendering="crispEdges"/><rect x="0" y="0" width="1011.83" height="1005.83" transform="scale(-1 1)" fill="url(#paint9_diamond_99_151)" opacity="1" shape-rendering="crispEdges"/><rect x="0" y="0" width="1011.83" height="1005.83" transform="scale(-1)" fill="url(#paint9_diamond_99_151)" opacity="1" shape-rendering="crispEdges"/></g></g><path d="M167.72 123.211C168.115 129.385 168.273 135.559 168.826 141.655C169.537 149.175 171.038 158.516 170.722 165.957C170.722 166.432 170.643 166.907 170.327 167.303C169.221 168.569 162.111 168.648 160.294 168.728C158.872 168.807 154.447 168.965 153.341 168.411C151.05 167.303 151.682 161.603 151.682 159.466V140.388C151.682 135.164 150.813 129.939 150.892 124.715C148.996 124.952 139.832 126.694 138.805 125.585C137.935 124.635 137.461 110.862 138.488 109.832C138.805 109.516 139.358 109.278 139.832 109.199C147.574 107.695 155.949 108.645 163.77 108.249C168.036 108.012 172.381 107.378 176.648 107.695C177.675 107.774 179.966 107.695 180.598 108.724C180.756 109.041 180.677 119.252 180.677 120.598C180.677 125.981 171.67 123.131 167.72 123.211Z" data-figma-gradient-fill="{&#34;type&#34;:&#34;GRADIENT_DIAMOND&#34;,&#34;stops&#34;:[{&#34;color&#34;:{&#34;r&#34;:0.29459026455879211,&#34;g&#34;:0.42263814806938171,&#34;b&#34;:0.80349934101104736,&#34;a&#34;:1.0},&#34;position&#34;:0.31999999284744263},{&#34;color&#34;:{&#34;r&#34;:0.094117648899555206,&#34;g&#34;:0.24705882370471954,&#34;b&#34;:0.53333336114883423,&#34;a&#34;:1.0},&#34;position&#34;:1.0}],&#34;stopsVar&#34;:[{&#34;color&#34;:{&#34;r&#34;:0.29459026455879211,&#34;g&#34;:0.42263814806938171,&#34;b&#34;:0.80349934101104736,&#34;a&#34;:1.0},&#34;position&#34;:0.31999999284744263},{&#34;color&#34;:{&#34;r&#34;:0.094117648899555206,&#34;g&#34;:0.24705882370471954,&#34;b&#34;:0.53333336114883423,&#34;a&#34;:1.0},&#34;position&#34;:1.0}],&#34;transform&#34;:{&#34;m00&#34;:2.1002693535070519e-14,&#34;m01&#34;:-343.0,&#34;m02&#34;:347.0,&#34;m10&#34;:169.0,&#34;m11&#34;:1.0348265891109779e-14,&#34;m12&#34;:-1.0348265891109779e-14},&#34;opacity&#34;:1.0,&#34;blendMode&#34;:&#34;NORMAL&#34;,&#34;visible&#34;:true}" style=""/>
<g clip-path="url(#paint10_diamond_99_151_clip_path)" data-figma-skip-parse="true"><g transform="matrix(0 0.0845 -0.1715 0 175.5 84.5)"><rect x="0" y="0" width="1011.83" height="1005.83" fill="url(#paint10_diamond_99_151)" opacity="1" shape-rendering="crispEdges"/><rect x="0" y="0" width="1011.83" height="1005.83" transform="scale(1 -1)" fill="url(#paint10_diamond_99_151)" opacity="1" shape-rendering="crispEdges"/><rect x="0" y="0" width="1011.83" height="1005.83" transform="scale(-1 1)" fill="url(#paint10_diamond_99_151)" opacity="1" shape-rendering="crispEdges"/><rect x="0" y="0" width="1011.83" height="1005.83" transform="scale(-1)" fill="url(#paint10_diamond_99_151)" opacity="1" shape-rendering="crispEdges"/></g></g><path d="M222.032 164.611C218.003 167.382 212.789 168.728 207.89 168.648C175.261 168.332 176.921 111.495 207.1 109.041C215.238 108.408 221.558 111.732 225.903 118.698C227.879 121.865 231.434 131.681 227.721 134.293C226.456 135.243 224.718 135.401 223.217 135.639C221.084 135.955 215.396 136.747 213.5 136.272C209.628 135.322 211.92 127.327 209.312 125.585C207.811 124.556 205.283 125.269 204.019 126.377C201.886 128.356 201.728 132.551 201.57 135.243C201.333 139.517 200.859 150.362 205.599 152.5C207.89 153.529 209.708 150.996 210.498 149.175C210.972 147.988 211.446 144.663 212.315 143.95C213.737 142.763 218.872 143.475 220.768 143.555C223.059 143.634 225.35 143.159 227.563 143.238C228.353 143.238 229.143 143.475 229.617 144.188C230.486 145.613 229.538 151.866 229.222 153.687C228.432 158.358 225.903 161.999 222.032 164.611Z" data-figma-gradient-fill="{&#34;type&#34;:&#34;GRADIENT_DIAMOND&#34;,&#34;stops&#34;:[{&#34;color&#34;:{&#34;r&#34;:0.29459026455879211,&#34;g&#34;:0.42263814806938171,&#34;b&#34;:0.80349934101104736,&#34;a&#34;:1.0},&#34;position&#34;:0.31999999284744263},{&#34;color&#34;:{&#34;r&#34;:0.094117648899555206,&#34;g&#34;:0.24705882370471954,&#34;b&#34;:0.53333336114883423,&#34;a&#34;:1.0},&#34;position&#34;:1.0}],&#34;stopsVar&#34;:[{&#34;color&#34;:{&#34;r&#34;:0.29459026455879211,&#34;g&#34;:0.42263814806938171,&#34;b&#34;:0.80349934101104736,&#34;a&#34;:1.0},&#34;position&#34;:0.31999999284744263},{&#34;color&#34;:{&#34;r&#34;:0.094117648899555206,&#34;g&#34;:0.24705882370471954,&#34;b&#34;:0.53333336114883423,&#34;a&#34;:1.0},&#34;position&#34;:1.0}],&#34;transform&#34;:{&#34;m00&#34;:2.1002693535070519e-14,&#34;m01&#34;:-343.0,&#34;m02&#34;:347.0,&#34;m10&#34;:169.0,&#34;m11&#34;:1.0348265891109779e-14,&#34;m12&#34;:-1.0348265891109779e-14},&#34;opacity&#34;:1.0,&#34;blendMode&#34;:&#34;NORMAL&#34;,&#34;visible&#34;:true}" style=""/>
<g clip-path="url(#paint11_diamond_99_151_clip_path)" data-figma-skip-parse="true"><g transform="matrix(0 0.0845 -0.1715 0 175.5 84.5)"><rect x="0" y="0" width="1011.83" height="1005.83" fill="url(#paint11_diamond_99_151)" opacity="1" shape-rendering="crispEdges"/><rect x="0" y="0" width="1011.83" height="1005.83" transform="scale(1 -1)" fill="url(#paint11_diamond_99_151)" opacity="1" shape-rendering="crispEdges"/><rect x="0" y="0" width="1011.83" height="1005.83" transform="scale(-1 1)" fill="url(#paint11_diamond_99_151)" opacity="1" shape-rendering="crispEdges"/><rect x="0" y="0" width="1011.83" height="1005.83" transform="scale(-1)" fill="url(#paint11_diamond_99_151)" opacity="1" shape-rendering="crispEdges"/></g></g><path d="M257.933 142.605C257.933 145.296 257.617 165.482 257.143 166.669C255.958 169.519 239.762 169.282 237.945 167.144C237.471 166.511 237.392 165.64 237.313 164.928C236.997 161.445 237.234 157.645 237.313 154.083C237.471 146.721 237.629 139.28 237.629 131.918C237.629 126.694 237.313 116.64 237.787 111.732C237.945 110.307 238.814 108.803 240.236 108.328C242.211 107.616 256.274 108.328 257.775 109.753C259.75 111.574 258.249 121.311 258.249 124.24C262.436 124.081 266.861 124.477 271.048 124.635C271.127 121.231 270.495 111.891 272.786 109.595C274.366 107.933 288.587 108.566 290.72 110.149C291.589 110.862 291.826 111.811 291.905 112.92C292.142 116.482 291.589 120.282 291.352 123.844C290.72 132.71 290.088 141.576 289.851 150.442C289.772 153.45 290.957 165.007 289.298 166.669C287.481 168.569 282.266 168.253 279.738 168.173C277.526 168.094 274.84 168.332 272.786 167.382C268.915 165.482 270.1 147.829 270.1 143.634C267.888 142.921 260.619 142.684 257.933 142.605Z" data-figma-gradient-fill="{&#34;type&#34;:&#34;GRADIENT_DIAMOND&#34;,&#34;stops&#34;:[{&#34;color&#34;:{&#34;r&#34;:0.29459026455879211,&#34;g&#34;:0.42263814806938171,&#34;b&#34;:0.80349934101104736,&#34;a&#34;:1.0},&#34;position&#34;:0.31999999284744263},{&#34;color&#34;:{&#34;r&#34;:0.094117648899555206,&#34;g&#34;:0.24705882370471954,&#34;b&#34;:0.53333336114883423,&#34;a&#34;:1.0},&#34;position&#34;:1.0}],&#34;stopsVar&#34;:[{&#34;color&#34;:{&#34;r&#34;:0.29459026455879211,&#34;g&#34;:0.42263814806938171,&#34;b&#34;:0.80349934101104736,&#34;a&#34;:1.0},&#34;position&#34;:0.31999999284744263},{&#34;color&#34;:{&#34;r&#34;:0.094117648899555206,&#34;g&#34;:0.24705882370471954,&#34;b&#34;:0.53333336114883423,&#34;a&#34;:1.0},&#34;position&#34;:1.0}],&#34;transform&#34;:{&#34;m00&#34;:2.1002693535070519e-14,&#34;m01&#34;:-343.0,&#34;m02&#34;:347.0,&#34;m10&#34;:169.0,&#34;m11&#34;:1.0348265891109779e-14,&#34;m12&#34;:-1.0348265891109779e-14},&#34;opacity&#34;:1.0,&#34;blendMode&#34;:&#34;NORMAL&#34;,&#34;visible&#34;:true}" style=""/>
</g>
<defs>
<filter id="filter0_di_99_151" x="0" y="0" width="351" height="177" filterUnits="userSpaceOnUse" color-interpolation-filters="sRGB">
<feFlood flood-opacity="0" result="BackgroundImageFix"/>
<feColorMatrix in="SourceAlpha" type="matrix" values="0 0 0 0 0 0 0 0 0 0 0 0 0 0 0 0 0 0 127 0" result="hardAlpha"/>
<feOffset dy="4"/>
<feGaussianBlur stdDeviation="2"/>
<feComposite in2="hardAlpha" operator="out"/>
<feColorMatrix type="matrix" values="0 0 0 0 0 0 0 0 0 0 0 0 0 0 0 0 0 0 0.15 0"/>
<feBlend mode="normal" in2="BackgroundImageFix" result="effect1_dropShadow_99_151"/>
<feBlend mode="normal" in="SourceGraphic" in2="effect1_dropShadow_99_151" result="shape"/>
<feColorMatrix in="SourceAlpha" type="matrix" values="0 0 0 0 0 0 0 0 0 0 0 0 0 0 0 0 0 0 127 0" result="hardAlpha"/>
<feOffset/>
<feGaussianBlur stdDeviation="2"/>
<feComposite in2="hardAlpha" operator="arithmetic" k2="-1" k3="1"/>
<feColorMatrix type="matrix" values="0 0 0 0 0 0 0 0 0 0 0 0 0 0 0 0 0 0 0.25 0"/>
<feBlend mode="normal" in2="shape" result="effect2_innerShadow_99_151"/>
</filter>
<clipPath id="paint0_diamond_99_151_clip_path"><path d="M23.3142 39.4294C23.4722 42.5167 25.4473 58.1904 24.1833 59.6153C22.0501 62.0692 5.85417 62.0692 4.19507 59.0611C3.56304 57.8737 4.6691 20.431 4.6691 15.9189C4.6691 12.4358 3.72105 2.93662 7.82929 1.74922C11.7795 0.640982 17.4679 0.640982 21.6551 0.561818C26.4744 0.482659 31.4517 0.7993 36.113 2.22418C54.8371 8.08203 53.81 30.4052 35.9549 37.0546C31.9257 38.5587 27.5805 38.8753 23.3142 39.4294ZM21.6551 24.5473C38.6411 26.1305 34.5329 9.82355 21.6551 14.8898V24.5473Z"/></clipPath><clipPath id="paint1_diamond_99_151_clip_path"><path d="M72.96 41.3293C77.4633 41.9626 83.3886 41.3293 87.9709 40.8543C89.472 40.696 91.0521 39.9836 92.5531 40.0627C96.6614 40.3002 96.0294 46.7122 95.8713 49.5619C95.7133 52.4908 95.7923 55.9739 95.1603 58.8237C95.0023 59.5361 94.7653 60.3277 94.1332 60.8027C93.3432 61.3568 79.5964 61.1193 77.4633 61.1193C74.3031 61.1193 71.1429 60.3277 67.9827 60.2485C65.9286 60.1694 59.5292 60.5652 58.1071 59.7736C56.685 58.982 55.974 57.2405 55.658 55.7364C54.7889 51.9367 55.421 48.0579 55.5 44.2582C55.737 30.801 55.5 17.2646 57.1591 3.80738C57.2381 2.85746 57.6331 1.9867 58.4231 1.35342C61.3463 -0.942224 73.9871 0.878459 77.9373 0.957618C82.1245 1.03678 86.4698 0.7993 90.657 0.482659C92.3161 0.324341 96.4244 -0.783901 97.3724 1.1951C98.0045 2.46166 97.7675 6.81547 97.7675 8.39867C97.7675 10.3777 97.8465 15.2856 96.1084 16.5522C93.4222 18.452 74.9351 13.9399 73.829 17.0271C73.671 17.5021 73.276 18.927 73.355 19.4019C73.9871 22.1725 91.2101 19.1644 93.1062 21.8559C93.8962 22.885 93.4222 27.1596 93.3432 28.5845C93.3432 29.9302 93.5012 34.0465 92.7902 34.9965C91.2891 36.8963 82.1245 35.9464 79.6754 35.7089C77.5423 35.4714 75.1721 36.263 73.197 35.2339C72.644 37.213 72.328 39.3503 72.96 41.3293Z"/></clipPath><clipPath id="paint2_diamond_99_151_clip_path"><path d="M140.347 38.0046C143.349 41.4084 145.641 45.2873 148.485 48.7703C149.591 50.116 153.462 53.7574 152.672 55.5781C152.356 56.3697 151.724 56.7655 151.013 57.1613C149.117 58.2695 137.424 61.8317 135.449 61.1985C132.131 60.1694 127.153 46.7913 122.571 42.8333C122.492 45.3664 123.44 59.2986 122.887 60.2485C122.176 61.3568 114.197 60.8818 112.775 60.6443C110.167 60.2485 107.639 60.2485 105.032 60.2485C104.005 60.2485 104.321 58.1112 104.321 57.4779C104.163 49.4036 104.953 41.5668 105.585 33.5716C105.98 28.6637 105.822 5.07395 107.876 2.61998C108.903 1.35342 113.012 1.11594 114.671 0.957618C121.86 0.324341 129.998 0.324341 137.108 1.51174C156.701 4.83646 158.36 31.1176 140.347 38.0046ZM123.519 15.2856C122.966 19.4811 123.282 23.7557 123.045 28.0304C140.505 27.4763 135.686 13.0691 123.519 15.2856Z"/></clipPath><clipPath id="paint3_diamond_99_151_clip_path"><path d="M179.716 25.2598C185.405 27.5554 197.966 18.1354 199.151 30.4052C199.309 32.1467 199.546 36.738 198.835 38.1629C196.623 42.3584 182.876 39.5086 180.822 41.5668C179.163 43.2291 182.718 56.9238 181.296 59.7736C180.19 61.9901 176.872 62.1484 174.66 62.3859C172.843 62.5442 166.206 62.94 164.784 62.465C162.888 61.8317 161.545 59.8527 161.545 57.8737C161.545 40.9335 160.202 24.4682 158.859 7.60707C158.701 6.02387 159.491 4.36151 160.913 3.56991C163.994 1.90754 197.176 -0.704742 199.151 1.74922C200.415 3.25326 199.783 9.19027 199.862 11.3276C199.941 13.2274 200.099 15.7606 198.44 17.1063C195.754 19.2436 182.797 17.5021 178.768 19.3228C178.136 20.7476 179.005 23.9141 179.716 25.2598Z"/></clipPath><clipPath id="paint4_diamond_99_151_clip_path"><path d="M224.257 41.3293C228.76 41.9626 234.686 41.3293 239.268 40.8543C240.769 40.696 242.349 39.9836 243.85 40.0627C247.958 40.3002 247.326 46.7122 247.168 49.5619C247.01 52.4908 247.089 55.9739 246.457 58.8237C246.299 59.5361 246.062 60.3277 245.43 60.8027C244.64 61.3568 230.893 61.1193 228.76 61.1193C225.6 61.1193 222.44 60.3277 219.28 60.2485C217.226 60.1694 210.826 60.5652 209.404 59.7736C207.982 58.982 207.271 57.2405 206.955 55.7364C206.086 51.9367 206.718 48.0579 206.797 44.2582C207.034 30.801 206.797 17.2646 208.456 3.80738C208.535 2.85746 208.93 1.9867 209.72 1.35342C212.643 -0.942224 225.284 0.878459 229.234 0.957618C233.422 1.03678 237.767 0.7993 241.954 0.482659C243.613 0.324341 247.721 -0.783901 248.669 1.1951C249.301 2.46166 249.064 6.81547 249.064 8.39867C249.064 10.3777 249.143 15.2856 247.405 16.5522C244.719 18.452 226.232 13.9399 225.126 17.0271C224.968 17.5021 224.573 18.927 224.652 19.4019C225.284 22.1725 242.507 19.1644 244.403 21.8559C245.193 22.885 244.719 27.1596 244.64 28.5845C244.64 29.9302 244.798 34.0465 244.087 34.9965C242.586 36.8963 233.422 35.9464 230.972 35.7089C228.839 35.4714 226.469 36.263 224.494 35.2339C223.941 37.213 223.625 39.3503 224.257 41.3293Z"/></clipPath><clipPath id="paint5_diamond_99_151_clip_path"><path d="M292.434 57.003C288.405 59.7736 283.191 61.1193 278.292 61.0401C245.664 60.7235 247.323 3.88655 277.502 1.43258C285.64 0.7993 291.96 4.12402 296.306 11.0901C298.281 14.2565 301.836 24.0724 298.123 26.6847C296.859 27.6346 295.12 27.7929 293.619 28.0304C291.486 28.347 285.798 29.1386 283.902 28.6637C280.031 27.7137 282.322 19.7186 279.715 17.977C278.213 16.948 275.685 17.6604 274.421 18.7686C272.288 20.7476 272.13 24.9431 271.972 27.6346C271.735 31.9092 271.261 42.7542 276.001 44.8915C278.292 45.9206 280.11 43.3874 280.9 41.5668C281.374 40.3794 281.848 37.0546 282.717 36.3422C284.139 35.1548 289.274 35.8672 291.17 35.9464C293.461 36.0255 295.753 35.5506 297.965 35.6297C298.755 35.6297 299.545 35.8672 300.019 36.5797C300.888 38.0046 299.94 44.2582 299.624 46.0789C298.834 50.7493 296.306 54.3907 292.434 57.003Z"/></clipPath><clipPath id="paint6_diamond_99_151_clip_path"><path d="M334.023 15.6022C334.419 21.7767 334.577 27.9512 335.13 34.0465C335.841 41.5668 337.342 50.9076 337.026 58.3487C337.026 58.8237 336.947 59.2986 336.631 59.6944C335.525 60.961 328.414 61.0401 326.597 61.1193C325.175 61.1985 320.751 61.3568 319.645 60.8027C317.353 59.6944 317.986 53.9949 317.986 51.8576V32.78C317.986 27.5554 317.116 22.3308 317.195 17.1063C315.299 17.3438 306.135 19.0853 305.108 17.977C304.239 17.0271 303.765 3.25326 304.792 2.22418C305.108 1.90754 305.661 1.67006 306.135 1.5909C313.877 0.0868586 322.252 1.03678 330.073 0.640982C334.34 0.4035 338.685 -0.229782 342.951 0.0868586C343.978 0.166018 346.269 0.0868586 346.901 1.11594C347.059 1.43258 346.98 11.6442 346.98 12.99C346.98 18.3728 337.974 15.5231 334.023 15.6022Z"/></clipPath><clipPath id="paint7_diamond_99_151_clip_path"><path d="M75.6625 147.038C75.8205 150.125 77.7956 165.799 76.5316 167.224C74.3984 169.677 58.2025 169.677 56.5434 166.669C55.9113 165.482 57.0174 128.039 57.0174 123.527C57.0174 120.044 56.0693 110.545 60.1776 109.357C64.1278 108.249 69.8162 108.249 74.0034 108.17C78.8227 108.091 83.8 108.408 88.4613 109.832C107.185 115.69 106.158 138.013 88.3033 144.663C84.274 146.167 79.9288 146.484 75.6625 147.038ZM74.0034 132.156C90.9894 133.739 86.8812 117.432 74.0034 122.498V132.156Z"/></clipPath><clipPath id="paint8_diamond_99_151_clip_path"><path d="M113.774 168.173C112.668 168.253 108.875 168.49 108.085 167.857C106.663 166.59 107.69 151.629 107.848 148.938C108.006 145.85 107.769 142.605 107.848 139.517C108.006 130.572 108.638 120.282 110.06 111.416C110.297 109.912 110.85 109.516 112.352 109.437C115.433 109.199 133.367 108.566 134.315 111.02C134.868 112.366 133.762 118.54 133.446 120.282C131.708 130.097 130.602 140.072 130.049 150.046C129.812 154.4 130.365 162.395 129.417 166.194C129.18 166.986 128.943 167.54 128.152 167.857C127.283 168.253 115.591 168.094 113.774 168.173Z"/></clipPath><clipPath id="paint9_diamond_99_151_clip_path"><path d="M167.72 123.211C168.115 129.385 168.273 135.559 168.826 141.655C169.537 149.175 171.038 158.516 170.722 165.957C170.722 166.432 170.643 166.907 170.327 167.303C169.221 168.569 162.111 168.648 160.294 168.728C158.872 168.807 154.447 168.965 153.341 168.411C151.05 167.303 151.682 161.603 151.682 159.466V140.388C151.682 135.164 150.813 129.939 150.892 124.715C148.996 124.952 139.832 126.694 138.805 125.585C137.935 124.635 137.461 110.862 138.488 109.832C138.805 109.516 139.358 109.278 139.832 109.199C147.574 107.695 155.949 108.645 163.77 108.249C168.036 108.012 172.381 107.378 176.648 107.695C177.675 107.774 179.966 107.695 180.598 108.724C180.756 109.041 180.677 119.252 180.677 120.598C180.677 125.981 171.67 123.131 167.72 123.211Z"/></clipPath><clipPath id="paint10_diamond_99_151_clip_path"><path d="M222.032 164.611C218.003 167.382 212.789 168.728 207.89 168.648C175.261 168.332 176.921 111.495 207.1 109.041C215.238 108.408 221.558 111.732 225.903 118.698C227.879 121.865 231.434 131.681 227.721 134.293C226.456 135.243 224.718 135.401 223.217 135.639C221.084 135.955 215.396 136.747 213.5 136.272C209.628 135.322 211.92 127.327 209.312 125.585C207.811 124.556 205.283 125.269 204.019 126.377C201.886 128.356 201.728 132.551 201.57 135.243C201.333 139.517 200.859 150.362 205.599 152.5C207.89 153.529 209.708 150.996 210.498 149.175C210.972 147.988 211.446 144.663 212.315 143.95C213.737 142.763 218.872 143.475 220.768 143.555C223.059 143.634 225.35 143.159 227.563 143.238C228.353 143.238 229.143 143.475 229.617 144.188C230.486 145.613 229.538 151.866 229.222 153.687C228.432 158.358 225.903 161.999 222.032 164.611Z"/></clipPath><clipPath id="paint11_diamond_99_151_clip_path"><path d="M257.933 142.605C257.933 145.296 257.617 165.482 257.143 166.669C255.958 169.519 239.762 169.282 237.945 167.144C237.471 166.511 237.392 165.64 237.313 164.928C236.997 161.445 237.234 157.645 237.313 154.083C237.471 146.721 237.629 139.28 237.629 131.918C237.629 126.694 237.313 116.64 237.787 111.732C237.945 110.307 238.814 108.803 240.236 108.328C242.211 107.616 256.274 108.328 257.775 109.753C259.75 111.574 258.249 121.311 258.249 124.24C262.436 124.081 266.861 124.477 271.048 124.635C271.127 121.231 270.495 111.891 272.786 109.595C274.366 107.933 288.587 108.566 290.72 110.149C291.589 110.862 291.826 111.811 291.905 112.92C292.142 116.482 291.589 120.282 291.352 123.844C290.72 132.71 290.088 141.576 289.851 150.442C289.772 153.45 290.957 165.007 289.298 166.669C287.481 168.569 282.266 168.253 279.738 168.173C277.526 168.094 274.84 168.332 272.786 167.382C268.915 165.482 270.1 147.829 270.1 143.634C267.888 142.921 260.619 142.684 257.933 142.605Z"/></clipPath><linearGradient id="paint0_diamond_99_151" x1="0" y1="0" x2="500" y2="500" gradientUnits="userSpaceOnUse">
<stop offset="0.32" stop-color="#4B6CCD" style="stop-color:#4B6CCD;stop-color:color(display-p3 0.2946 0.4226 0.8035);stop-opacity:1;"/>
<stop offset="1" stop-color="#183F88" style="stop-color:#183F88;stop-color:color(display-p3 0.0941 0.2471 0.5333);stop-opacity:1;"/>
</linearGradient>
<linearGradient id="paint1_diamond_99_151" x1="0" y1="0" x2="500" y2="500" gradientUnits="userSpaceOnUse">
<stop offset="0.32" stop-color="#4B6CCD" style="stop-color:#4B6CCD;stop-color:color(display-p3 0.2946 0.4226 0.8035);stop-opacity:1;"/>
<stop offset="1" stop-color="#183F88" style="stop-color:#183F88;stop-color:color(display-p3 0.0941 0.2471 0.5333);stop-opacity:1;"/>
</linearGradient>
<linearGradient id="paint2_diamond_99_151" x1="0" y1="0" x2="500" y2="500" gradientUnits="userSpaceOnUse">
<stop offset="0.32" stop-color="#4B6CCD" style="stop-color:#4B6CCD;stop-color:color(display-p3 0.2946 0.4226 0.8035);stop-opacity:1;"/>
<stop offset="1" stop-color="#183F88" style="stop-color:#183F88;stop-color:color(display-p3 0.0941 0.2471 0.5333);stop-opacity:1;"/>
</linearGradient>
<linearGradient id="paint3_diamond_99_151" x1="0" y1="0" x2="500" y2="500" gradientUnits="userSpaceOnUse">
<stop offset="0.32" stop-color="#4B6CCD" style="stop-color:#4B6CCD;stop-color:color(display-p3 0.2946 0.4226 0.8035);stop-opacity:1;"/>
<stop offset="1" stop-color="#183F88" style="stop-color:#183F88;stop-color:color(display-p3 0.0941 0.2471 0.5333);stop-opacity:1;"/>
</linearGradient>
<linearGradient id="paint4_diamond_99_151" x1="0" y1="0" x2="500" y2="500" gradientUnits="userSpaceOnUse">
<stop offset="0.32" stop-color="#4B6CCD" style="stop-color:#4B6CCD;stop-color:color(display-p3 0.2946 0.4226 0.8035);stop-opacity:1;"/>
<stop offset="1" stop-color="#183F88" style="stop-color:#183F88;stop-color:color(display-p3 0.0941 0.2471 0.5333);stop-opacity:1;"/>
</linearGradient>
<linearGradient id="paint5_diamond_99_151" x1="0" y1="0" x2="500" y2="500" gradientUnits="userSpaceOnUse">
<stop offset="0.32" stop-color="#4B6CCD" style="stop-color:#4B6CCD;stop-color:color(display-p3 0.2946 0.4226 0.8035);stop-opacity:1;"/>
<stop offset="1" stop-color="#183F88" style="stop-color:#183F88;stop-color:color(display-p3 0.0941 0.2471 0.5333);stop-opacity:1;"/>
</linearGradient>
<linearGradient id="paint6_diamond_99_151" x1="0" y1="0" x2="500" y2="500" gradientUnits="userSpaceOnUse">
<stop offset="0.32" stop-color="#4B6CCD" style="stop-color:#4B6CCD;stop-color:color(display-p3 0.2946 0.4226 0.8035);stop-opacity:1;"/>
<stop offset="1" stop-color="#183F88" style="stop-color:#183F88;stop-color:color(display-p3 0.0941 0.2471 0.5333);stop-opacity:1;"/>
</linearGradient>
<linearGradient id="paint7_diamond_99_151" x1="0" y1="0" x2="500" y2="500" gradientUnits="userSpaceOnUse">
<stop offset="0.32" stop-color="#4B6CCD" style="stop-color:#4B6CCD;stop-color:color(display-p3 0.2946 0.4226 0.8035);stop-opacity:1;"/>
<stop offset="1" stop-color="#183F88" style="stop-color:#183F88;stop-color:color(display-p3 0.0941 0.2471 0.5333);stop-opacity:1;"/>
</linearGradient>
<linearGradient id="paint8_diamond_99_151" x1="0" y1="0" x2="500" y2="500" gradientUnits="userSpaceOnUse">
<stop offset="0.32" stop-color="#4B6CCD" style="stop-color:#4B6CCD;stop-color:color(display-p3 0.2946 0.4226 0.8035);stop-opacity:1;"/>
<stop offset="1" stop-color="#183F88" style="stop-color:#183F88;stop-color:color(display-p3 0.0941 0.2471 0.5333);stop-opacity:1;"/>
</linearGradient>
<linearGradient id="paint9_diamond_99_151" x1="0" y1="0" x2="500" y2="500" gradientUnits="userSpaceOnUse">
<stop offset="0.32" stop-color="#4B6CCD" style="stop-color:#4B6CCD;stop-color:color(display-p3 0.2946 0.4226 0.8035);stop-opacity:1;"/>
<stop offset="1" stop-color="#183F88" style="stop-color:#183F88;stop-color:color(display-p3 0.0941 0.2471 0.5333);stop-opacity:1;"/>
</linearGradient>
<linearGradient id="paint10_diamond_99_151" x1="0" y1="0" x2="500" y2="500" gradientUnits="userSpaceOnUse">
<stop offset="0.32" stop-color="#4B6CCD" style="stop-color:#4B6CCD;stop-color:color(display-p3 0.2946 0.4226 0.8035);stop-opacity:1;"/>
<stop offset="1" stop-color="#183F88" style="stop-color:#183F88;stop-color:color(display-p3 0.0941 0.2471 0.5333);stop-opacity:1;"/>
</linearGradient>
<linearGradient id="paint11_diamond_99_151" x1="0" y1="0" x2="500" y2="500" gradientUnits="userSpaceOnUse">
<stop offset="0.32" stop-color="#4B6CCD" style="stop-color:#4B6CCD;stop-color:color(display-p3 0.2946 0.4226 0.8035);stop-opacity:1;"/>
<stop offset="1" stop-color="#183F88" style="stop-color:#183F88;stop-color:color(display-p3 0.0941 0.2471 0.5333);stop-opacity:1;"/>
</linearGradient>
</defs>
</svg>
