<svg width="1025" height="619" viewBox="0 0 1025 619" fill="none" xmlns="http://www.w3.org/2000/svg">
<g clip-path="url(#paint0_diamond_98_149_clip_path)" data-figma-skip-parse="true"><g transform="matrix(0.0228888 -0.00275762 0.00327915 0.0272175 82.0834 515.095)"><rect x="0" y="0" width="1132.88" height="1111.75" fill="url(#paint0_diamond_98_149)" opacity="1" shape-rendering="crispEdges"/><rect x="0" y="0" width="1132.88" height="1111.75" transform="scale(1 -1)" fill="url(#paint0_diamond_98_149)" opacity="1" shape-rendering="crispEdges"/><rect x="0" y="0" width="1132.88" height="1111.75" transform="scale(-1 1)" fill="url(#paint0_diamond_98_149)" opacity="1" shape-rendering="crispEdges"/><rect x="0" y="0" width="1132.88" height="1111.75" transform="scale(-1)" fill="url(#paint0_diamond_98_149)" opacity="1" shape-rendering="crispEdges"/></g></g><path d="M101.152 492.364C97.21 487.144 82.3013 487.732 80.6158 487.78L78.7302 487.886L82.8886 522.401C82.414 522.103 81.9154 521.846 81.398 521.631C79.5858 520.977 77.6599 520.697 75.7364 520.807C73.8129 520.917 71.9317 521.415 70.206 522.272C63.4701 525.379 59.7411 532.386 61.8885 537.891C62.3593 539.054 63.0645 540.106 63.96 540.984C64.8556 541.862 65.9223 542.546 67.0938 542.994C69.1036 543.774 71.2778 544.034 73.415 543.751C75.1372 543.542 76.8151 543.06 78.3858 542.324C84.4359 539.541 88.0368 533.619 87.1736 528.46L83.5645 498.504C85.2902 498.503 87.6637 498.579 90.1938 498.81C92.6801 498.887 95.1276 499.448 97.3993 500.461C99.2357 501.379 98.4351 503.615 98.3706 503.796C97.7062 505.128 96.8967 506.383 95.9567 507.538C95.6843 507.882 95.5542 508.318 95.5934 508.755C95.6327 509.192 95.8381 509.597 96.1674 509.887C96.4967 510.177 96.9248 510.33 97.3633 510.314C97.8019 510.298 98.2175 510.114 98.5245 509.8C98.8346 509.366 106.941 500.019 101.152 492.364Z" data-figma-gradient-fill="{&#34;type&#34;:&#34;GRADIENT_DIAMOND&#34;,&#34;stops&#34;:[{&#34;color&#34;:{&#34;r&#34;:0.97647058963775635,&#34;g&#34;:0.72156864404678345,&#34;b&#34;:0.68627452850341797,&#34;a&#34;:1.0},&#34;position&#34;:0.0},{&#34;color&#34;:{&#34;r&#34;:0.90980392694473267,&#34;g&#34;:0.32156863808631897,&#34;b&#34;:0.20392157137393951,&#34;a&#34;:1.0},&#34;position&#34;:1.0}],&#34;stopsVar&#34;:[{&#34;color&#34;:{&#34;r&#34;:0.97647058963775635,&#34;g&#34;:0.72156864404678345,&#34;b&#34;:0.68627452850341797,&#34;a&#34;:1.0},&#34;position&#34;:0.0},{&#34;color&#34;:{&#34;r&#34;:0.90980392694473267,&#34;g&#34;:0.32156863808631897,&#34;b&#34;:0.20392157137393951,&#34;a&#34;:1.0},&#34;position&#34;:1.0}],&#34;transform&#34;:{&#34;m00&#34;:45.777530670166016,&#34;m01&#34;:6.5583024024963379,&#34;m02&#34;:55.915527343750,&#34;m10&#34;:-5.5152478218078613,&#34;m11&#34;:54.435066223144531,&#34;m12&#34;:490.63482666015625},&#34;opacity&#34;:1.0,&#34;blendMode&#34;:&#34;NORMAL&#34;,&#34;visible&#34;:true}" style=""/>
<g clip-path="url(#paint1_diamond_98_149_clip_path)" data-figma-skip-parse="true"><g transform="matrix(0.0246097 0.00728493 -0.00728451 0.0246083 949.894 315.893)"><rect x="0" y="0" width="1008.39" height="1008.39" fill="url(#paint1_diamond_98_149)" opacity="1" shape-rendering="crispEdges"/><rect x="0" y="0" width="1008.39" height="1008.39" transform="scale(1 -1)" fill="url(#paint1_diamond_98_149)" opacity="1" shape-rendering="crispEdges"/><rect x="0" y="0" width="1008.39" height="1008.39" transform="scale(-1 1)" fill="url(#paint1_diamond_98_149)" opacity="1" shape-rendering="crispEdges"/><rect x="0" y="0" width="1008.39" height="1008.39" transform="scale(-1)" fill="url(#paint1_diamond_98_149)" opacity="1" shape-rendering="crispEdges"/></g></g><path d="M977.745 297.528L944.297 297.506C943.615 297.517 942.954 297.746 942.41 298.159C941.867 298.571 941.469 299.147 941.275 299.801L933.836 324.931C932.901 324.388 931.906 323.956 930.871 323.644C925.776 322.135 920.827 323.667 919.821 327.064C918.816 330.461 922.134 334.44 927.229 335.948C932.324 337.457 937.273 335.925 938.279 332.528L944.928 310.064L971.672 310.139L966.419 327.886C965.484 327.342 964.49 326.91 963.455 326.597C958.36 325.089 953.41 326.621 952.405 330.018C951.399 333.415 954.717 337.394 959.812 338.902C964.907 340.41 969.856 338.88 970.862 335.482L980.879 301.643C981.021 301.16 981.048 300.65 980.957 300.155C980.866 299.66 980.659 299.193 980.354 298.792C980.049 298.391 979.654 298.068 979.201 297.848C978.748 297.629 978.249 297.519 977.745 297.528Z" data-figma-gradient-fill="{&#34;type&#34;:&#34;GRADIENT_DIAMOND&#34;,&#34;stops&#34;:[{&#34;color&#34;:{&#34;r&#34;:0.97647058963775635,&#34;g&#34;:0.72156864404678345,&#34;b&#34;:0.68627452850341797,&#34;a&#34;:1.0},&#34;position&#34;:0.0},{&#34;color&#34;:{&#34;r&#34;:0.90980392694473267,&#34;g&#34;:0.32156863808631897,&#34;b&#34;:0.20392157137393951,&#34;a&#34;:1.0},&#34;position&#34;:1.0}],&#34;stopsVar&#34;:[{&#34;color&#34;:{&#34;r&#34;:0.97647058963775635,&#34;g&#34;:0.72156864404678345,&#34;b&#34;:0.68627452850341797,&#34;a&#34;:1.0},&#34;position&#34;:0.0},{&#34;color&#34;:{&#34;r&#34;:0.90980392694473267,&#34;g&#34;:0.32156863808631897,&#34;b&#34;:0.20392157137393951,&#34;a&#34;:1.0},&#34;position&#34;:1.0}],&#34;transform&#34;:{&#34;m00&#34;:49.219459533691406,&#34;m01&#34;:-14.569012641906738,&#34;m02&#34;:932.5690917968750,&#34;m10&#34;:14.569859504699707,&#34;m11&#34;:49.216598510742188,&#34;m12&#34;:284.0},&#34;opacity&#34;:1.0,&#34;blendMode&#34;:&#34;NORMAL&#34;,&#34;visible&#34;:true}" style=""/>
<g clip-path="url(#paint2_diamond_98_149_clip_path)" data-figma-skip-parse="true"><g transform="matrix(0.0163447 0.00275308 -0.00390025 0.0231553 26.21 25.9084)"><rect x="0" y="0" width="1154.55" height="1109.1" fill="url(#paint2_diamond_98_149)" opacity="1" shape-rendering="crispEdges"/><rect x="0" y="0" width="1154.55" height="1109.1" transform="scale(1 -1)" fill="url(#paint2_diamond_98_149)" opacity="1" shape-rendering="crispEdges"/><rect x="0" y="0" width="1154.55" height="1109.1" transform="scale(-1 1)" fill="url(#paint2_diamond_98_149)" opacity="1" shape-rendering="crispEdges"/><rect x="0" y="0" width="1154.55" height="1109.1" transform="scale(-1)" fill="url(#paint2_diamond_98_149)" opacity="1" shape-rendering="crispEdges"/></g></g><path d="M28.5298 42.4538L32.404 19.4531C32.404 19.4531 42.6093 26.688 34.6261 37.5194C34.3607 37.8809 36.0134 38.5963 36.3011 38.2525C52.049 19.3585 35.6492 18.0654 35.076 3.5895L29.1171 2.58579L23.7306 34.565C22.6557 34.0114 20.6779 33.471 19.3717 33.2509C4.84151 30.8035 2.33258 45.6987 16.8628 48.1462C22.1883 49.0432 27.8372 46.5658 28.5298 42.4538Z" data-figma-gradient-fill="{&#34;type&#34;:&#34;GRADIENT_DIAMOND&#34;,&#34;stops&#34;:[{&#34;color&#34;:{&#34;r&#34;:0.97647058963775635,&#34;g&#34;:0.72156864404678345,&#34;b&#34;:0.68627452850341797,&#34;a&#34;:1.0},&#34;position&#34;:0.0},{&#34;color&#34;:{&#34;r&#34;:0.90980392694473267,&#34;g&#34;:0.32156863808631897,&#34;b&#34;:0.20392157137393951,&#34;a&#34;:1.0},&#34;position&#34;:1.0}],&#34;stopsVar&#34;:[{&#34;color&#34;:{&#34;r&#34;:0.97647058963775635,&#34;g&#34;:0.72156864404678345,&#34;b&#34;:0.68627452850341797,&#34;a&#34;:1.0},&#34;position&#34;:0.0},{&#34;color&#34;:{&#34;r&#34;:0.90980392694473267,&#34;g&#34;:0.32156863808631897,&#34;b&#34;:0.20392157137393951,&#34;a&#34;:1.0},&#34;position&#34;:1.0}],&#34;transform&#34;:{&#34;m00&#34;:32.689342498779297,&#34;m01&#34;:-7.8004965782165527,&#34;m02&#34;:13.7656250,&#34;m10&#34;:5.5061526298522949,&#34;m11&#34;:46.310577392578125,&#34;m12&#34;:0.0},&#34;opacity&#34;:1.0,&#34;blendMode&#34;:&#34;NORMAL&#34;,&#34;visible&#34;:true}" style=""/>
<g clip-path="url(#paint3_diamond_98_149_clip_path)" data-figma-skip-parse="true"><g transform="matrix(0.016345 0.00275313 -0.00390025 0.0231553 75.2411 34.1685)"><rect x="0" y="0" width="1154.55" height="1109.1" fill="url(#paint3_diamond_98_149)" opacity="1" shape-rendering="crispEdges"/><rect x="0" y="0" width="1154.55" height="1109.1" transform="scale(1 -1)" fill="url(#paint3_diamond_98_149)" opacity="1" shape-rendering="crispEdges"/><rect x="0" y="0" width="1154.55" height="1109.1" transform="scale(-1 1)" fill="url(#paint3_diamond_98_149)" opacity="1" shape-rendering="crispEdges"/><rect x="0" y="0" width="1154.55" height="1109.1" transform="scale(-1)" fill="url(#paint3_diamond_98_149)" opacity="1" shape-rendering="crispEdges"/></g></g><path d="M84.1088 11.8499L78.1458 10.8455L72.7593 42.8248C71.6844 42.2711 69.7066 41.7307 68.4004 41.5107C53.873 39.0637 51.364 53.9589 65.8915 56.4059C71.2198 57.3034 76.8688 54.8247 77.5614 50.7127L81.4357 27.712C81.4357 27.712 91.638 34.9477 83.6564 45.778C83.3924 46.1397 85.0424 46.8547 85.33 46.5109C101.082 27.6203 84.6831 26.3274 84.1088 11.8499Z" data-figma-gradient-fill="{&#34;type&#34;:&#34;GRADIENT_DIAMOND&#34;,&#34;stops&#34;:[{&#34;color&#34;:{&#34;r&#34;:0.97647058963775635,&#34;g&#34;:0.72156864404678345,&#34;b&#34;:0.68627452850341797,&#34;a&#34;:1.0},&#34;position&#34;:0.0},{&#34;color&#34;:{&#34;r&#34;:0.90980392694473267,&#34;g&#34;:0.32156863808631897,&#34;b&#34;:0.20392157137393951,&#34;a&#34;:1.0},&#34;position&#34;:1.0}],&#34;stopsVar&#34;:[{&#34;color&#34;:{&#34;r&#34;:0.97647058963775635,&#34;g&#34;:0.72156864404678345,&#34;b&#34;:0.68627452850341797,&#34;a&#34;:1.0},&#34;position&#34;:0.0},{&#34;color&#34;:{&#34;r&#34;:0.90980392694473267,&#34;g&#34;:0.32156863808631897,&#34;b&#34;:0.20392157137393951,&#34;a&#34;:1.0},&#34;position&#34;:1.0}],&#34;transform&#34;:{&#34;m00&#34;:32.689998626708984,&#34;m01&#34;:-7.8004965782165527,&#34;m02&#34;:62.796386718750,&#34;m10&#34;:5.5062632560729980,&#34;m11&#34;:46.310577392578125,&#34;m12&#34;:8.2601013183593750},&#34;opacity&#34;:1.0,&#34;blendMode&#34;:&#34;NORMAL&#34;,&#34;visible&#34;:true}" style=""/>
<g clip-path="url(#paint4_diamond_98_149_clip_path)" data-figma-skip-parse="true"><g transform="matrix(0.0163438 0.00275294 -0.00390025 0.0231553 37.9509 64.305)"><rect x="0" y="0" width="1154.56" height="1109.1" fill="url(#paint4_diamond_98_149)" opacity="1" shape-rendering="crispEdges"/><rect x="0" y="0" width="1154.56" height="1109.1" transform="scale(1 -1)" fill="url(#paint4_diamond_98_149)" opacity="1" shape-rendering="crispEdges"/><rect x="0" y="0" width="1154.56" height="1109.1" transform="scale(-1 1)" fill="url(#paint4_diamond_98_149)" opacity="1" shape-rendering="crispEdges"/><rect x="0" y="0" width="1154.56" height="1109.1" transform="scale(-1)" fill="url(#paint4_diamond_98_149)" opacity="1" shape-rendering="crispEdges"/></g></g><path d="M40.8588 40.9825L35.4723 72.9618C34.3946 72.4077 32.4169 71.8672 31.1134 71.6477C16.5832 69.2002 14.0743 84.0954 28.6045 86.5429C33.93 87.4399 39.5789 84.9625 40.2717 80.8492L44.1459 57.8485C44.1459 57.8485 54.3485 65.0829 46.3664 75.9159C46.1028 76.2749 47.7527 76.9912 48.0405 76.6461C63.7892 57.7563 47.3907 56.4635 46.8177 41.9862L40.8588 40.9825Z" data-figma-gradient-fill="{&#34;type&#34;:&#34;GRADIENT_DIAMOND&#34;,&#34;stops&#34;:[{&#34;color&#34;:{&#34;r&#34;:0.97647058963775635,&#34;g&#34;:0.72156864404678345,&#34;b&#34;:0.68627452850341797,&#34;a&#34;:1.0},&#34;position&#34;:0.0},{&#34;color&#34;:{&#34;r&#34;:0.90980392694473267,&#34;g&#34;:0.32156863808631897,&#34;b&#34;:0.20392157137393951,&#34;a&#34;:1.0},&#34;position&#34;:1.0}],&#34;stopsVar&#34;:[{&#34;color&#34;:{&#34;r&#34;:0.97647058963775635,&#34;g&#34;:0.72156864404678345,&#34;b&#34;:0.68627452850341797,&#34;a&#34;:1.0},&#34;position&#34;:0.0},{&#34;color&#34;:{&#34;r&#34;:0.90980392694473267,&#34;g&#34;:0.32156863808631897,&#34;b&#34;:0.20392157137393951,&#34;a&#34;:1.0},&#34;position&#34;:1.0}],&#34;transform&#34;:{&#34;m00&#34;:32.687690734863281,&#34;m01&#34;:-7.8004965782165527,&#34;m02&#34;:25.507324218750,&#34;m10&#34;:5.5058741569519043,&#34;m11&#34;:46.310577392578125,&#34;m12&#34;:38.3967285156250},&#34;opacity&#34;:1.0,&#34;blendMode&#34;:&#34;NORMAL&#34;,&#34;visible&#34;:true}" style=""/>
<g clip-path="url(#paint5_diamond_98_149_clip_path)" data-figma-skip-parse="true"><g transform="matrix(0.0148174 -0.00264301 0.00264286 0.0148165 1007.46 601.459)"><rect x="0" y="0" width="1014.31" height="1014.31" fill="url(#paint5_diamond_98_149)" opacity="1" shape-rendering="crispEdges"/><rect x="0" y="0" width="1014.31" height="1014.31" transform="scale(1 -1)" fill="url(#paint5_diamond_98_149)" opacity="1" shape-rendering="crispEdges"/><rect x="0" y="0" width="1014.31" height="1014.31" transform="scale(-1 1)" fill="url(#paint5_diamond_98_149)" opacity="1" shape-rendering="crispEdges"/><rect x="0" y="0" width="1014.31" height="1014.31" transform="scale(-1)" fill="url(#paint5_diamond_98_149)" opacity="1" shape-rendering="crispEdges"/></g></g><path d="M1017.24 584.515L999.697 593.288C999.342 593.473 999.055 593.767 998.879 594.126C998.702 594.485 998.644 594.891 998.714 595.285L1001.41 610.416C1000.78 610.377 1000.15 610.411 999.521 610.519C996.453 611.066 994.26 613.169 994.625 615.215C994.99 617.26 997.775 618.475 1000.84 617.928C1003.91 617.381 1006.1 615.278 1005.74 613.232L1003.33 599.707L1017.37 592.723L1019.27 603.408C1018.64 603.369 1018.01 603.403 1017.38 603.511C1014.31 604.058 1012.12 606.161 1012.49 608.207C1012.85 610.252 1015.64 611.467 1018.7 610.92C1021.77 610.373 1023.96 608.27 1023.6 606.224L1019.96 585.85C1019.91 585.56 1019.79 585.285 1019.61 585.05C1019.44 584.814 1019.21 584.623 1018.94 584.493C1018.68 584.363 1018.38 584.297 1018.09 584.301C1017.79 584.305 1017.5 584.378 1017.24 584.515Z" data-figma-gradient-fill="{&#34;type&#34;:&#34;GRADIENT_DIAMOND&#34;,&#34;stops&#34;:[{&#34;color&#34;:{&#34;r&#34;:0.97647058963775635,&#34;g&#34;:0.72156864404678345,&#34;b&#34;:0.68627452850341797,&#34;a&#34;:1.0},&#34;position&#34;:0.0},{&#34;color&#34;:{&#34;r&#34;:0.90980392694473267,&#34;g&#34;:0.32156863808631897,&#34;b&#34;:0.20392157137393951,&#34;a&#34;:1.0},&#34;position&#34;:1.0}],&#34;stopsVar&#34;:[{&#34;color&#34;:{&#34;r&#34;:0.97647058963775635,&#34;g&#34;:0.72156864404678345,&#34;b&#34;:0.68627452850341797,&#34;a&#34;:1.0},&#34;position&#34;:0.0},{&#34;color&#34;:{&#34;r&#34;:0.90980392694473267,&#34;g&#34;:0.32156863808631897,&#34;b&#34;:0.20392157137393951,&#34;a&#34;:1.0},&#34;position&#34;:1.0}],&#34;transform&#34;:{&#34;m00&#34;:29.634719848632812,&#34;m01&#34;:5.2857227325439453,&#34;m02&#34;:990.0,&#34;m10&#34;:-5.2860293388366699,&#34;m11&#34;:29.632999420166016,&#34;m12&#34;:589.28601074218750},&#34;opacity&#34;:1.0,&#34;blendMode&#34;:&#34;NORMAL&#34;,&#34;visible&#34;:true}" style=""/>
<g clip-path="url(#paint6_diamond_98_149_clip_path)" data-figma-skip-parse="true"><g transform="matrix(0.0198504 0.00420181 -0.00499647 0.0236046 991.639 48.1996)"><rect x="0" y="0" width="1150.98" height="1126.97" fill="url(#paint6_diamond_98_149)" opacity="1" shape-rendering="crispEdges"/><rect x="0" y="0" width="1150.98" height="1126.97" transform="scale(1 -1)" fill="url(#paint6_diamond_98_149)" opacity="1" shape-rendering="crispEdges"/><rect x="0" y="0" width="1150.98" height="1126.97" transform="scale(-1 1)" fill="url(#paint6_diamond_98_149)" opacity="1" shape-rendering="crispEdges"/><rect x="0" y="0" width="1150.98" height="1126.97" transform="scale(-1)" fill="url(#paint6_diamond_98_149)" opacity="1" shape-rendering="crispEdges"/></g></g><path d="M1013.98 34.6782C1012.18 29.2102 999.59 25.467 998.172 25.0282L996.571 24.5814L990.235 54.5145C989.924 54.1319 989.582 53.7759 989.212 53.4502C987.888 52.3907 986.363 51.6103 984.73 51.1558C983.096 50.7014 981.388 50.5825 979.707 50.8062C973.213 51.4817 968.117 56.2602 968.343 61.4561C968.405 62.558 968.694 63.6354 969.19 64.6209C969.687 65.6065 970.382 66.4792 971.23 67.1846C972.683 68.4051 974.42 69.2393 976.281 69.6102C977.775 69.9251 979.31 70.0002 980.827 69.8326C986.658 69.2325 991.339 65.3218 992.085 60.7785L997.584 34.7992C999.022 35.2885 1000.98 36.0261 1003.02 36.9362C1005.07 37.7063 1006.95 38.8686 1008.55 40.3579C1009.82 41.6439 1008.52 43.2796 1008.42 43.4115C1007.48 44.3329 1006.45 45.1486 1005.34 45.8437C1005.02 46.0529 1004.79 46.3788 1004.69 46.7541C1004.6 47.1293 1004.66 47.5254 1004.85 47.8605C1005.04 48.1957 1005.36 48.4444 1005.73 48.5554C1006.1 48.6664 1006.49 48.6313 1006.84 48.4571C1007.22 48.1834 1016.63 42.699 1013.98 34.6782Z" data-figma-gradient-fill="{&#34;type&#34;:&#34;GRADIENT_DIAMOND&#34;,&#34;stops&#34;:[{&#34;color&#34;:{&#34;r&#34;:0.97647058963775635,&#34;g&#34;:0.72156864404678345,&#34;b&#34;:0.68627452850341797,&#34;a&#34;:1.0},&#34;position&#34;:0.0},{&#34;color&#34;:{&#34;r&#34;:0.90980392694473267,&#34;g&#34;:0.32156863808631897,&#34;b&#34;:0.20392157137393951,&#34;a&#34;:1.0},&#34;position&#34;:1.0}],&#34;stopsVar&#34;:[{&#34;color&#34;:{&#34;r&#34;:0.97647058963775635,&#34;g&#34;:0.72156864404678345,&#34;b&#34;:0.68627452850341797,&#34;a&#34;:1.0},&#34;position&#34;:0.0},{&#34;color&#34;:{&#34;r&#34;:0.90980392694473267,&#34;g&#34;:0.32156863808631897,&#34;b&#34;:0.20392157137393951,&#34;a&#34;:1.0},&#34;position&#34;:1.0}],&#34;transform&#34;:{&#34;m00&#34;:39.700862884521484,&#34;m01&#34;:-9.9929399490356445,&#34;m02&#34;:976.785156250,&#34;m10&#34;:8.4036283493041992,&#34;m11&#34;:47.209171295166016,&#34;m12&#34;:20.393218994140625},&#34;opacity&#34;:1.0,&#34;blendMode&#34;:&#34;NORMAL&#34;,&#34;visible&#34;:true}" style=""/>
<defs>
<clipPath id="paint0_diamond_98_149_clip_path"><path d="M101.152 492.364C97.21 487.144 82.3013 487.732 80.6158 487.78L78.7302 487.886L82.8886 522.401C82.414 522.103 81.9154 521.846 81.398 521.631C79.5858 520.977 77.6599 520.697 75.7364 520.807C73.8129 520.917 71.9317 521.415 70.206 522.272C63.4701 525.379 59.7411 532.386 61.8885 537.891C62.3593 539.054 63.0645 540.106 63.96 540.984C64.8556 541.862 65.9223 542.546 67.0938 542.994C69.1036 543.774 71.2778 544.034 73.415 543.751C75.1372 543.542 76.8151 543.06 78.3858 542.324C84.4359 539.541 88.0368 533.619 87.1736 528.46L83.5645 498.504C85.2902 498.503 87.6637 498.579 90.1938 498.81C92.6801 498.887 95.1276 499.448 97.3993 500.461C99.2357 501.379 98.4351 503.615 98.3706 503.796C97.7062 505.128 96.8967 506.383 95.9567 507.538C95.6843 507.882 95.5542 508.318 95.5934 508.755C95.6327 509.192 95.8381 509.597 96.1674 509.887C96.4967 510.177 96.9248 510.33 97.3633 510.314C97.8019 510.298 98.2175 510.114 98.5245 509.8C98.8346 509.366 106.941 500.019 101.152 492.364Z"/></clipPath><clipPath id="paint1_diamond_98_149_clip_path"><path d="M977.745 297.528L944.297 297.506C943.615 297.517 942.954 297.746 942.41 298.159C941.867 298.571 941.469 299.147 941.275 299.801L933.836 324.931C932.901 324.388 931.906 323.956 930.871 323.644C925.776 322.135 920.827 323.667 919.821 327.064C918.816 330.461 922.134 334.44 927.229 335.948C932.324 337.457 937.273 335.925 938.279 332.528L944.928 310.064L971.672 310.139L966.419 327.886C965.484 327.342 964.49 326.91 963.455 326.597C958.36 325.089 953.41 326.621 952.405 330.018C951.399 333.415 954.717 337.394 959.812 338.902C964.907 340.41 969.856 338.88 970.862 335.482L980.879 301.643C981.021 301.16 981.048 300.65 980.957 300.155C980.866 299.66 980.659 299.193 980.354 298.792C980.049 298.391 979.654 298.068 979.201 297.848C978.748 297.629 978.249 297.519 977.745 297.528Z"/></clipPath><clipPath id="paint2_diamond_98_149_clip_path"><path d="M28.5298 42.4538L32.404 19.4531C32.404 19.4531 42.6093 26.688 34.6261 37.5194C34.3607 37.8809 36.0134 38.5963 36.3011 38.2525C52.049 19.3585 35.6492 18.0654 35.076 3.5895L29.1171 2.58579L23.7306 34.565C22.6557 34.0114 20.6779 33.471 19.3717 33.2509C4.84151 30.8035 2.33258 45.6987 16.8628 48.1462C22.1883 49.0432 27.8372 46.5658 28.5298 42.4538Z"/></clipPath><clipPath id="paint3_diamond_98_149_clip_path"><path d="M84.1088 11.8499L78.1458 10.8455L72.7593 42.8248C71.6844 42.2711 69.7066 41.7307 68.4004 41.5107C53.873 39.0637 51.364 53.9589 65.8915 56.4059C71.2198 57.3034 76.8688 54.8247 77.5614 50.7127L81.4357 27.712C81.4357 27.712 91.638 34.9477 83.6564 45.778C83.3924 46.1397 85.0424 46.8547 85.33 46.5109C101.082 27.6203 84.6831 26.3274 84.1088 11.8499Z"/></clipPath><clipPath id="paint4_diamond_98_149_clip_path"><path d="M40.8588 40.9825L35.4723 72.9618C34.3946 72.4077 32.4169 71.8672 31.1134 71.6477C16.5832 69.2002 14.0743 84.0954 28.6045 86.5429C33.93 87.4399 39.5789 84.9625 40.2717 80.8492L44.1459 57.8485C44.1459 57.8485 54.3485 65.0829 46.3664 75.9159C46.1028 76.2749 47.7527 76.9912 48.0405 76.6461C63.7892 57.7563 47.3907 56.4635 46.8177 41.9862L40.8588 40.9825Z"/></clipPath><clipPath id="paint5_diamond_98_149_clip_path"><path d="M1017.24 584.515L999.697 593.288C999.342 593.473 999.055 593.767 998.879 594.126C998.702 594.485 998.644 594.891 998.714 595.285L1001.41 610.416C1000.78 610.377 1000.15 610.411 999.521 610.519C996.453 611.066 994.26 613.169 994.625 615.215C994.99 617.26 997.775 618.475 1000.84 617.928C1003.91 617.381 1006.1 615.278 1005.74 613.232L1003.33 599.707L1017.37 592.723L1019.27 603.408C1018.64 603.369 1018.01 603.403 1017.38 603.511C1014.31 604.058 1012.12 606.161 1012.49 608.207C1012.85 610.252 1015.64 611.467 1018.7 610.92C1021.77 610.373 1023.96 608.27 1023.6 606.224L1019.96 585.85C1019.91 585.56 1019.79 585.285 1019.61 585.05C1019.44 584.814 1019.21 584.623 1018.94 584.493C1018.68 584.363 1018.38 584.297 1018.09 584.301C1017.79 584.305 1017.5 584.378 1017.24 584.515Z"/></clipPath><clipPath id="paint6_diamond_98_149_clip_path"><path d="M1013.98 34.6782C1012.18 29.2102 999.59 25.467 998.172 25.0282L996.571 24.5814L990.235 54.5145C989.924 54.1319 989.582 53.7759 989.212 53.4502C987.888 52.3907 986.363 51.6103 984.73 51.1558C983.096 50.7014 981.388 50.5825 979.707 50.8062C973.213 51.4817 968.117 56.2602 968.343 61.4561C968.405 62.558 968.694 63.6354 969.19 64.6209C969.687 65.6065 970.382 66.4792 971.23 67.1846C972.683 68.4051 974.42 69.2393 976.281 69.6102C977.775 69.9251 979.31 70.0002 980.827 69.8326C986.658 69.2325 991.339 65.3218 992.085 60.7785L997.584 34.7992C999.022 35.2885 1000.98 36.0261 1003.02 36.9362C1005.07 37.7063 1006.95 38.8686 1008.55 40.3579C1009.82 41.6439 1008.52 43.2796 1008.42 43.4115C1007.48 44.3329 1006.45 45.1486 1005.34 45.8437C1005.02 46.0529 1004.79 46.3788 1004.69 46.7541C1004.6 47.1293 1004.66 47.5254 1004.85 47.8605C1005.04 48.1957 1005.36 48.4444 1005.73 48.5554C1006.1 48.6664 1006.49 48.6313 1006.84 48.4571C1007.22 48.1834 1016.63 42.699 1013.98 34.6782Z"/></clipPath><linearGradient id="paint0_diamond_98_149" x1="0" y1="0" x2="500" y2="500" gradientUnits="userSpaceOnUse">
<stop stop-color="#F9B8AF" style="stop-color:#F9B8AF;stop-color:color(display-p3 0.9765 0.7216 0.6863);stop-opacity:1;"/>
<stop offset="1" stop-color="#E85234" style="stop-color:#E85234;stop-color:color(display-p3 0.9098 0.3216 0.2039);stop-opacity:1;"/>
</linearGradient>
<linearGradient id="paint1_diamond_98_149" x1="0" y1="0" x2="500" y2="500" gradientUnits="userSpaceOnUse">
<stop stop-color="#F9B8AF" style="stop-color:#F9B8AF;stop-color:color(display-p3 0.9765 0.7216 0.6863);stop-opacity:1;"/>
<stop offset="1" stop-color="#E85234" style="stop-color:#E85234;stop-color:color(display-p3 0.9098 0.3216 0.2039);stop-opacity:1;"/>
</linearGradient>
<linearGradient id="paint2_diamond_98_149" x1="0" y1="0" x2="500" y2="500" gradientUnits="userSpaceOnUse">
<stop stop-color="#F9B8AF" style="stop-color:#F9B8AF;stop-color:color(display-p3 0.9765 0.7216 0.6863);stop-opacity:1;"/>
<stop offset="1" stop-color="#E85234" style="stop-color:#E85234;stop-color:color(display-p3 0.9098 0.3216 0.2039);stop-opacity:1;"/>
</linearGradient>
<linearGradient id="paint3_diamond_98_149" x1="0" y1="0" x2="500" y2="500" gradientUnits="userSpaceOnUse">
<stop stop-color="#F9B8AF" style="stop-color:#F9B8AF;stop-color:color(display-p3 0.9765 0.7216 0.6863);stop-opacity:1;"/>
<stop offset="1" stop-color="#E85234" style="stop-color:#E85234;stop-color:color(display-p3 0.9098 0.3216 0.2039);stop-opacity:1;"/>
</linearGradient>
<linearGradient id="paint4_diamond_98_149" x1="0" y1="0" x2="500" y2="500" gradientUnits="userSpaceOnUse">
<stop stop-color="#F9B8AF" style="stop-color:#F9B8AF;stop-color:color(display-p3 0.9765 0.7216 0.6863);stop-opacity:1;"/>
<stop offset="1" stop-color="#E85234" style="stop-color:#E85234;stop-color:color(display-p3 0.9098 0.3216 0.2039);stop-opacity:1;"/>
</linearGradient>
<linearGradient id="paint5_diamond_98_149" x1="0" y1="0" x2="500" y2="500" gradientUnits="userSpaceOnUse">
<stop stop-color="#F9B8AF" style="stop-color:#F9B8AF;stop-color:color(display-p3 0.9765 0.7216 0.6863);stop-opacity:1;"/>
<stop offset="1" stop-color="#E85234" style="stop-color:#E85234;stop-color:color(display-p3 0.9098 0.3216 0.2039);stop-opacity:1;"/>
</linearGradient>
<linearGradient id="paint6_diamond_98_149" x1="0" y1="0" x2="500" y2="500" gradientUnits="userSpaceOnUse">
<stop stop-color="#F9B8AF" style="stop-color:#F9B8AF;stop-color:color(display-p3 0.9765 0.7216 0.6863);stop-opacity:1;"/>
<stop offset="1" stop-color="#E85234" style="stop-color:#E85234;stop-color:color(display-p3 0.9098 0.3216 0.2039);stop-opacity:1;"/>
</linearGradient>
</defs>
</svg>
