<svg width="122" height="30" viewBox="0 0 122 30" fill="none" xmlns="http://www.w3.org/2000/svg">
<path d="M9.82264 23.968C9.64264 25.12 9.46264 26.272 9.42664 27.424C9.42664 27.856 9.31864 28.36 8.77864 28.288C7.55464 28.108 1.39864 28.864 0.966644 27.82C0.678644 27.136 3.37864 17.632 3.77464 16.444C5.10664 12.484 5.79064 8.30801 7.12264 4.34801C7.41064 3.52001 7.66264 2.69201 8.20264 2.00801C8.41864 1.72001 8.67064 1.54001 9.03064 1.43201C9.49864 1.32401 9.96664 1.46801 10.4346 1.46801C12.0546 1.46801 18.9306 0.856009 20.0106 1.46801C20.3346 1.64801 20.6226 1.97201 20.8026 2.29601C21.7026 3.84401 24.3306 20.98 25.3026 24.616C25.4826 25.264 26.2026 26.848 25.6266 27.424C25.3026 27.748 18.1746 28 17.8866 27.748C17.3466 27.28 17.2386 24.58 17.1666 23.788C14.7546 23.716 12.1986 23.68 9.82264 23.968ZM11.5146 16.336C13.0266 16.228 14.5026 16.192 16.0146 16.336C15.8346 14.932 16.1226 8.52401 14.6106 8.23601C11.8386 7.69601 11.7306 14.572 11.5146 16.336Z" fill="#E85234" style="fill:#E85234;fill:color(display-p3 0.9098 0.3216 0.2039);fill-opacity:1;"/>
<path d="M46.3486 16.12C47.7166 16.984 48.9046 18.28 49.4806 19.828C49.8766 20.872 50.0206 22.024 49.8046 23.14C49.0846 26.848 45.4126 28.18 42.1006 28.72C38.6806 29.26 34.7566 29.548 31.3006 29.116C30.9046 29.08 30.6166 28.972 30.2926 28.72C29.8246 28.36 29.6086 27.784 29.5006 27.244C29.2126 25.804 29.4286 24.292 29.2846 22.852C29.0686 20.836 28.7806 18.82 28.6726 16.768C28.5286 14.104 27.0166 3.55601 28.8526 2.08001C30.7246 0.568009 42.8926 0.964008 45.1966 2.47601C49.4086 5.21201 50.8846 12.556 46.3486 16.12ZM36.3046 12.232C43.0366 12.412 43.5046 7.37201 36.0886 8.81201L36.3046 12.232ZM36.7366 17.56C36.8086 18.82 36.9526 20.044 37.1326 21.304C38.3566 21.304 40.6606 21.052 41.3806 19.9C41.7766 19.252 41.4526 18.208 40.9126 17.74C39.9046 16.84 37.9246 17.272 36.7366 17.56Z" fill="#E85234" style="fill:#E85234;fill:color(display-p3 0.9098 0.3216 0.2039);fill-opacity:1;"/>
<path d="M68.6933 27.352C66.8213 28.36 64.5893 28.828 62.5013 28.756C50.5493 28.396 49.0733 10.252 56.6693 3.62801C58.8653 1.72001 61.8533 0.676007 64.7693 0.820007C77.7293 1.43201 78.8813 21.916 68.6933 27.352ZM62.3573 20.728C66.3893 23.932 69.5573 12.376 66.1373 8.23601C65.3093 7.22801 63.9053 7.12001 62.8613 7.91201C60.1613 10.036 59.5853 18.496 62.3573 20.728Z" fill="#E85234" style="fill:#E85234;fill:color(display-p3 0.9098 0.3216 0.2039);fill-opacity:1;"/>
<path d="M90.9382 28.144C88.4182 28.828 85.5382 28.468 83.1982 27.352C75.9262 23.86 78.0142 9.74801 78.8782 3.52001C78.9502 3.05201 79.0222 2.58401 79.2382 2.15201C79.3822 1.90001 79.5262 1.68401 79.8142 1.57601C80.2822 1.39601 81.9742 1.43201 82.5502 1.43201C83.5582 1.46801 86.4742 1.54001 87.0142 2.47601C88.3462 4.74401 83.3422 18.856 87.4822 20.656C88.5262 21.124 89.6782 19.828 90.1462 19.036C92.1262 15.472 91.2982 7.33601 91.2982 3.23201C91.2982 2.76401 91.3702 2.04401 91.7302 1.72001C92.3062 1.18001 95.0782 1.57601 95.9422 1.61201C96.5902 1.64801 98.2102 1.64801 98.6782 2.00801C99.0382 2.29601 99.2902 2.72801 99.3262 3.16001C100.082 10.396 99.9022 25.768 90.9382 28.144Z" fill="#E85234" style="fill:#E85234;fill:color(display-p3 0.9098 0.3216 0.2039);fill-opacity:1;"/>
<path d="M115.123 7.84001C115.303 10.648 115.375 13.456 115.627 16.228C115.951 19.648 116.635 23.896 116.491 27.28C116.491 27.496 116.455 27.712 116.311 27.892C115.807 28.468 112.567 28.504 111.739 28.54C111.091 28.576 109.075 28.648 108.571 28.396C107.527 27.892 107.815 25.3 107.815 24.328V15.652C107.815 13.276 107.419 10.9 107.455 8.52401C106.591 8.63201 102.415 9.42401 101.947 8.92001C101.551 8.48801 101.335 2.22401 101.803 1.75601C101.947 1.61201 102.199 1.50401 102.415 1.46801C105.943 0.784008 109.759 1.21601 113.323 1.03601C115.267 0.928008 117.247 0.640008 119.191 0.784008C119.659 0.820007 120.703 0.784008 120.991 1.25201C121.063 1.39601 121.027 6.04001 121.027 6.65201C121.027 9.10001 116.923 7.80401 115.123 7.84001Z" fill="#E85234" style="fill:#E85234;fill:color(display-p3 0.9098 0.3216 0.2039);fill-opacity:1;"/>
</svg>
