<svg width="142" height="29" viewBox="0 0 142 29" fill="none" xmlns="http://www.w3.org/2000/svg">
<path d="M9.75466 16.66C9.75466 17.884 9.61066 27.064 9.39466 27.604C8.85466 28.9 1.47466 28.792 0.646664 27.82C0.430664 27.532 0.394664 27.136 0.358664 26.812C0.214664 25.228 0.322664 23.5 0.358664 21.88C0.430664 18.532 0.502664 15.148 0.502664 11.8C0.502664 9.42396 0.358664 4.85196 0.574664 2.61996C0.646664 1.97196 1.04266 1.28796 1.69066 1.07196C2.59066 0.747959 8.99866 1.07196 9.68266 1.71996C10.5827 2.54796 9.89866 6.97596 9.89866 8.30796C11.8067 8.23596 13.8227 8.41596 15.7307 8.48796C15.7667 6.93996 15.4787 2.69196 16.5227 1.64796C17.2427 0.891959 23.7227 1.17996 24.6947 1.89996C25.0907 2.22396 25.1987 2.65596 25.2347 3.15996C25.3427 4.77996 25.0907 6.50796 24.9827 8.12796C24.6947 12.16 24.4067 16.192 24.2987 20.224C24.2627 21.592 24.8027 26.848 24.0467 27.604C23.2187 28.468 20.8427 28.324 19.6907 28.288C18.6827 28.252 17.4587 28.36 16.5227 27.928C14.7587 27.064 15.2987 19.036 15.2987 17.128C14.2907 16.804 10.9787 16.696 9.75466 16.66Z" fill="#E85234" style="fill:#E85234;fill:color(display-p3 0.9098 0.3216 0.2039);fill-opacity:1;"/>
<path d="M44.6015 27.352C42.7295 28.36 40.4975 28.828 38.4095 28.756C26.4575 28.396 24.9815 10.252 32.5775 3.62796C34.7735 1.71996 37.7615 0.675958 40.6775 0.819958C53.6375 1.43196 54.7895 21.916 44.6015 27.352ZM38.2655 20.728C42.2975 23.932 45.4655 12.376 42.0455 8.23596C41.2175 7.22796 39.8135 7.11996 38.7695 7.91196C36.0695 10.036 35.4935 18.496 38.2655 20.728Z" fill="#E85234" style="fill:#E85234;fill:color(display-p3 0.9098 0.3216 0.2039);fill-opacity:1;"/>
<path d="M69.1864 19.648C67.9624 23.716 67.5304 28.324 62.3464 28.252C60.0424 28.216 58.4944 28.144 57.2704 25.948C55.4704 22.708 52.3024 5.39196 54.3184 2.47596C55.0744 1.39596 58.1344 1.25196 59.3944 1.21596C60.2584 1.17996 61.2304 1.17996 61.8784 1.79196C63.2464 3.08796 63.1024 13.024 63.4984 15.58C63.5704 16.156 63.8224 17.488 64.5784 17.524C67.1704 17.632 65.6224 6.83196 66.9544 4.74396C67.7464 3.44796 70.0864 3.51996 71.3464 3.95196C71.8504 4.13196 72.3904 4.38396 72.7144 4.81596C74.0464 6.54396 72.7504 13.852 73.7224 16.732C73.8664 17.128 74.1544 17.812 74.6584 17.776C75.0904 17.74 75.4504 17.02 75.5584 16.66C76.7464 13.348 76.0624 3.55596 78.1144 1.50396C78.6904 0.927959 79.4464 0.71196 80.2384 0.747959C81.4985 0.819958 84.7744 1.25196 85.6024 2.18796C86.1064 2.76396 86.4664 3.55596 86.5024 4.34796C86.6824 7.87596 83.1184 22.42 81.3904 25.66C80.8505 26.668 80.0584 27.64 78.9424 27.964C77.5384 28.36 75.9544 28.612 74.5145 28.36C70.6264 27.676 69.9064 22.888 69.1864 19.648Z" fill="#E85234" style="fill:#E85234;fill:color(display-p3 0.9098 0.3216 0.2039);fill-opacity:1;"/>
<path d="M110.578 7.83996C110.758 10.648 110.83 13.456 111.082 16.228C111.406 19.648 112.09 23.896 111.946 27.28C111.946 27.496 111.91 27.712 111.766 27.892C111.262 28.468 108.022 28.504 107.194 28.54C106.546 28.576 104.53 28.648 104.026 28.396C102.982 27.892 103.27 25.3 103.27 24.328V15.652C103.27 13.276 102.874 10.9 102.91 8.52396C102.046 8.63196 97.8703 9.42396 97.4023 8.91996C97.0063 8.48796 96.7903 2.22396 97.2583 1.75596C97.4023 1.61196 97.6543 1.50396 97.8703 1.46796C101.398 0.783959 105.214 1.21596 108.778 1.03596C110.722 0.927959 112.702 0.639958 114.646 0.783959C115.114 0.819958 116.158 0.783959 116.446 1.25196C116.518 1.39596 116.482 6.03996 116.482 6.65196C116.482 9.09996 112.378 7.80396 110.578 7.83996Z" fill="#E85234" style="fill:#E85234;fill:color(display-p3 0.9098 0.3216 0.2039);fill-opacity:1;"/>
<path d="M134.812 27.352C132.94 28.36 130.708 28.828 128.62 28.756C116.668 28.396 115.192 10.252 122.788 3.62796C124.984 1.71996 127.972 0.675958 130.888 0.819958C143.848 1.43196 145 21.916 134.812 27.352ZM128.476 20.728C132.508 23.932 135.676 12.376 132.256 8.23596C131.428 7.22796 130.024 7.11996 128.98 7.91196C126.28 10.036 125.704 18.496 128.476 20.728Z" fill="#E85234" style="fill:#E85234;fill:color(display-p3 0.9098 0.3216 0.2039);fill-opacity:1;"/>
</svg>
