<svg width="1194" height="104" viewBox="0 0 1194 104" fill="none" xmlns="http://www.w3.org/2000/svg">
<rect y="28.3682" width="1194" height="75" fill="#F2EEE9" style="fill:#F2EEE9;fill:color(display-p3 0.9490 0.9333 0.9137);fill-opacity:1;"/>
<rect y="8.60767" width="84.5554" height="19.1284" fill="#7496DD" style="fill:#7496DD;fill:color(display-p3 0.4537 0.5870 0.8684);fill-opacity:1;"/>
<rect x="84.5554" y="8.60767" width="84.5554" height="19.1284" fill="#7496DD" style="fill:#7496DD;fill:color(display-p3 0.4537 0.5870 0.8684);fill-opacity:1;"/>
<rect x="169.111" y="8.60767" width="84.5554" height="19.1284" fill="#7496DD" style="fill:#7496DD;fill:color(display-p3 0.4537 0.5870 0.8684);fill-opacity:1;"/>
<rect x="253.666" y="8.60767" width="84.5554" height="19.1284" fill="#7496DD" style="fill:#7496DD;fill:color(display-p3 0.4537 0.5870 0.8684);fill-opacity:1;"/>
<rect x="338.222" y="8.60767" width="84.5554" height="19.1284" fill="#7496DD" style="fill:#7496DD;fill:color(display-p3 0.4537 0.5870 0.8684);fill-opacity:1;"/>
<rect x="422.777" y="8.60767" width="84.5554" height="19.1284" fill="#7496DD" style="fill:#7496DD;fill:color(display-p3 0.4537 0.5870 0.8684);fill-opacity:1;"/>
<rect x="507.333" y="8.60767" width="84.5554" height="19.1284" fill="#7496DD" style="fill:#7496DD;fill:color(display-p3 0.4537 0.5870 0.8684);fill-opacity:1;"/>
<rect x="591.888" y="8.60767" width="84.5554" height="19.1284" fill="#7496DD" style="fill:#7496DD;fill:color(display-p3 0.4537 0.5870 0.8684);fill-opacity:1;"/>
<g clip-path="url(#paint0_diamond_108_125_clip_path)" data-figma-skip-parse="true"><g transform="matrix(0 0.0138681 -0.0320567 0 85.0201 13.8681)"><rect x="0" y="0" width="1072.11" height="1031.19" fill="url(#paint0_diamond_108_125)" opacity="1" shape-rendering="crispEdges"/><rect x="0" y="0" width="1072.11" height="1031.19" transform="scale(1 -1)" fill="url(#paint0_diamond_108_125)" opacity="1" shape-rendering="crispEdges"/><rect x="0" y="0" width="1072.11" height="1031.19" transform="scale(-1 1)" fill="url(#paint0_diamond_108_125)" opacity="1" shape-rendering="crispEdges"/><rect x="0" y="0" width="1072.11" height="1031.19" transform="scale(-1)" fill="url(#paint0_diamond_108_125)" opacity="1" shape-rendering="crispEdges"/></g></g><path d="M52.9634 8.00001C52.9634 3.58173 56.5451 0 60.9634 0H109.077C113.495 0 117.077 3.58172 117.077 8V27.7361H52.9634V8.00001Z" data-figma-gradient-fill="{&#34;type&#34;:&#34;GRADIENT_DIAMOND&#34;,&#34;stops&#34;:[{&#34;color&#34;:{&#34;r&#34;:0.18856945633888245,&#34;g&#34;:0.34065979719161987,&#34;b&#34;:0.62534177303314209,&#34;a&#34;:1.0},&#34;position&#34;:0.0},{&#34;color&#34;:{&#34;r&#34;:0.094117648899555206,&#34;g&#34;:0.24705882370471954,&#34;b&#34;:0.53333336114883423,&#34;a&#34;:1.0},&#34;position&#34;:1.0}],&#34;stopsVar&#34;:[{&#34;color&#34;:{&#34;r&#34;:0.18856945633888245,&#34;g&#34;:0.34065979719161987,&#34;b&#34;:0.62534177303314209,&#34;a&#34;:1.0},&#34;position&#34;:0.0},{&#34;color&#34;:{&#34;r&#34;:0.094117648899555206,&#34;g&#34;:0.24705882370471954,&#34;b&#34;:0.53333336114883423,&#34;a&#34;:1.0},&#34;position&#34;:1.0}],&#34;transform&#34;:{&#34;m00&#34;:3.9258168689894433e-15,&#34;m01&#34;:-64.113449096679688,&#34;m02&#34;:117.07682800292969,&#34;m10&#34;:27.736114501953125,&#34;m11&#34;:1.6983472225404975e-15,&#34;m12&#34;:-1.6983472225404975e-15},&#34;opacity&#34;:1.0,&#34;blendMode&#34;:&#34;NORMAL&#34;,&#34;visible&#34;:true}" style=""/>
<g clip-path="url(#paint1_diamond_108_125_clip_path)" data-figma-skip-parse="true"><g transform="matrix(0 0.0138681 -0.0320567 0 169.575 13.8681)"><rect x="0" y="0" width="1072.11" height="1031.19" fill="url(#paint1_diamond_108_125)" opacity="1" shape-rendering="crispEdges"/><rect x="0" y="0" width="1072.11" height="1031.19" transform="scale(1 -1)" fill="url(#paint1_diamond_108_125)" opacity="1" shape-rendering="crispEdges"/><rect x="0" y="0" width="1072.11" height="1031.19" transform="scale(-1 1)" fill="url(#paint1_diamond_108_125)" opacity="1" shape-rendering="crispEdges"/><rect x="0" y="0" width="1072.11" height="1031.19" transform="scale(-1)" fill="url(#paint1_diamond_108_125)" opacity="1" shape-rendering="crispEdges"/></g></g><path d="M137.519 8.00001C137.519 3.58173 141.1 0 145.519 0H193.632C198.05 0 201.632 3.58172 201.632 8V27.7361H137.519V8.00001Z" data-figma-gradient-fill="{&#34;type&#34;:&#34;GRADIENT_DIAMOND&#34;,&#34;stops&#34;:[{&#34;color&#34;:{&#34;r&#34;:0.18856945633888245,&#34;g&#34;:0.34065979719161987,&#34;b&#34;:0.62534177303314209,&#34;a&#34;:1.0},&#34;position&#34;:0.0},{&#34;color&#34;:{&#34;r&#34;:0.094117648899555206,&#34;g&#34;:0.24705882370471954,&#34;b&#34;:0.53333336114883423,&#34;a&#34;:1.0},&#34;position&#34;:1.0}],&#34;stopsVar&#34;:[{&#34;color&#34;:{&#34;r&#34;:0.18856945633888245,&#34;g&#34;:0.34065979719161987,&#34;b&#34;:0.62534177303314209,&#34;a&#34;:1.0},&#34;position&#34;:0.0},{&#34;color&#34;:{&#34;r&#34;:0.094117648899555206,&#34;g&#34;:0.24705882370471954,&#34;b&#34;:0.53333336114883423,&#34;a&#34;:1.0},&#34;position&#34;:1.0}],&#34;transform&#34;:{&#34;m00&#34;:3.9258168689894433e-15,&#34;m01&#34;:-64.113449096679688,&#34;m02&#34;:201.63200378417969,&#34;m10&#34;:27.736114501953125,&#34;m11&#34;:1.6983472225404975e-15,&#34;m12&#34;:-1.6983472225404975e-15},&#34;opacity&#34;:1.0,&#34;blendMode&#34;:&#34;NORMAL&#34;,&#34;visible&#34;:true}" style=""/>
<g clip-path="url(#paint2_diamond_108_125_clip_path)" data-figma-skip-parse="true"><g transform="matrix(0 0.0138681 -0.0320567 0 338.686 13.8681)"><rect x="0" y="0" width="1072.11" height="1031.19" fill="url(#paint2_diamond_108_125)" opacity="1" shape-rendering="crispEdges"/><rect x="0" y="0" width="1072.11" height="1031.19" transform="scale(1 -1)" fill="url(#paint2_diamond_108_125)" opacity="1" shape-rendering="crispEdges"/><rect x="0" y="0" width="1072.11" height="1031.19" transform="scale(-1 1)" fill="url(#paint2_diamond_108_125)" opacity="1" shape-rendering="crispEdges"/><rect x="0" y="0" width="1072.11" height="1031.19" transform="scale(-1)" fill="url(#paint2_diamond_108_125)" opacity="1" shape-rendering="crispEdges"/></g></g><path d="M306.629 8.00001C306.629 3.58173 310.211 0 314.629 0H362.743C367.161 0 370.743 3.58172 370.743 8V27.7361H306.629V8.00001Z" data-figma-gradient-fill="{&#34;type&#34;:&#34;GRADIENT_DIAMOND&#34;,&#34;stops&#34;:[{&#34;color&#34;:{&#34;r&#34;:0.18856945633888245,&#34;g&#34;:0.34065979719161987,&#34;b&#34;:0.62534177303314209,&#34;a&#34;:1.0},&#34;position&#34;:0.0},{&#34;color&#34;:{&#34;r&#34;:0.094117648899555206,&#34;g&#34;:0.24705882370471954,&#34;b&#34;:0.53333336114883423,&#34;a&#34;:1.0},&#34;position&#34;:1.0}],&#34;stopsVar&#34;:[{&#34;color&#34;:{&#34;r&#34;:0.18856945633888245,&#34;g&#34;:0.34065979719161987,&#34;b&#34;:0.62534177303314209,&#34;a&#34;:1.0},&#34;position&#34;:0.0},{&#34;color&#34;:{&#34;r&#34;:0.094117648899555206,&#34;g&#34;:0.24705882370471954,&#34;b&#34;:0.53333336114883423,&#34;a&#34;:1.0},&#34;position&#34;:1.0}],&#34;transform&#34;:{&#34;m00&#34;:3.9258168689894433e-15,&#34;m01&#34;:-64.113449096679688,&#34;m02&#34;:370.74285888671875,&#34;m10&#34;:27.736114501953125,&#34;m11&#34;:1.6983472225404975e-15,&#34;m12&#34;:-1.6983472225404975e-15},&#34;opacity&#34;:1.0,&#34;blendMode&#34;:&#34;NORMAL&#34;,&#34;visible&#34;:true}" style=""/>
<g clip-path="url(#paint3_diamond_108_125_clip_path)" data-figma-skip-parse="true"><g transform="matrix(0 0.0138681 -0.0320567 0 423.242 13.8681)"><rect x="0" y="0" width="1072.11" height="1031.19" fill="url(#paint3_diamond_108_125)" opacity="1" shape-rendering="crispEdges"/><rect x="0" y="0" width="1072.11" height="1031.19" transform="scale(1 -1)" fill="url(#paint3_diamond_108_125)" opacity="1" shape-rendering="crispEdges"/><rect x="0" y="0" width="1072.11" height="1031.19" transform="scale(-1 1)" fill="url(#paint3_diamond_108_125)" opacity="1" shape-rendering="crispEdges"/><rect x="0" y="0" width="1072.11" height="1031.19" transform="scale(-1)" fill="url(#paint3_diamond_108_125)" opacity="1" shape-rendering="crispEdges"/></g></g><path d="M391.185 8.00001C391.185 3.58173 394.767 0 399.185 0H447.298C451.717 0 455.298 3.58172 455.298 8V27.7361H391.185V8.00001Z" data-figma-gradient-fill="{&#34;type&#34;:&#34;GRADIENT_DIAMOND&#34;,&#34;stops&#34;:[{&#34;color&#34;:{&#34;r&#34;:0.18856945633888245,&#34;g&#34;:0.34065979719161987,&#34;b&#34;:0.62534177303314209,&#34;a&#34;:1.0},&#34;position&#34;:0.0},{&#34;color&#34;:{&#34;r&#34;:0.094117648899555206,&#34;g&#34;:0.24705882370471954,&#34;b&#34;:0.53333336114883423,&#34;a&#34;:1.0},&#34;position&#34;:1.0}],&#34;stopsVar&#34;:[{&#34;color&#34;:{&#34;r&#34;:0.18856945633888245,&#34;g&#34;:0.34065979719161987,&#34;b&#34;:0.62534177303314209,&#34;a&#34;:1.0},&#34;position&#34;:0.0},{&#34;color&#34;:{&#34;r&#34;:0.094117648899555206,&#34;g&#34;:0.24705882370471954,&#34;b&#34;:0.53333336114883423,&#34;a&#34;:1.0},&#34;position&#34;:1.0}],&#34;transform&#34;:{&#34;m00&#34;:3.9258168689894433e-15,&#34;m01&#34;:-64.113449096679688,&#34;m02&#34;:455.29827880859375,&#34;m10&#34;:27.736114501953125,&#34;m11&#34;:1.6983472225404975e-15,&#34;m12&#34;:-1.6983472225404975e-15},&#34;opacity&#34;:1.0,&#34;blendMode&#34;:&#34;NORMAL&#34;,&#34;visible&#34;:true}" style=""/>
<g clip-path="url(#paint4_diamond_108_125_clip_path)" data-figma-skip-parse="true"><g transform="matrix(0 0.0138681 -0.0320567 0 507.797 13.8681)"><rect x="0" y="0" width="1072.11" height="1031.19" fill="url(#paint4_diamond_108_125)" opacity="1" shape-rendering="crispEdges"/><rect x="0" y="0" width="1072.11" height="1031.19" transform="scale(1 -1)" fill="url(#paint4_diamond_108_125)" opacity="1" shape-rendering="crispEdges"/><rect x="0" y="0" width="1072.11" height="1031.19" transform="scale(-1 1)" fill="url(#paint4_diamond_108_125)" opacity="1" shape-rendering="crispEdges"/><rect x="0" y="0" width="1072.11" height="1031.19" transform="scale(-1)" fill="url(#paint4_diamond_108_125)" opacity="1" shape-rendering="crispEdges"/></g></g><path d="M475.74 8.00001C475.74 3.58173 479.322 0 483.74 0H531.854C536.272 0 539.854 3.58172 539.854 8V27.7361H475.74V8.00001Z" data-figma-gradient-fill="{&#34;type&#34;:&#34;GRADIENT_DIAMOND&#34;,&#34;stops&#34;:[{&#34;color&#34;:{&#34;r&#34;:0.18856945633888245,&#34;g&#34;:0.34065979719161987,&#34;b&#34;:0.62534177303314209,&#34;a&#34;:1.0},&#34;position&#34;:0.0},{&#34;color&#34;:{&#34;r&#34;:0.094117648899555206,&#34;g&#34;:0.24705882370471954,&#34;b&#34;:0.53333336114883423,&#34;a&#34;:1.0},&#34;position&#34;:1.0}],&#34;stopsVar&#34;:[{&#34;color&#34;:{&#34;r&#34;:0.18856945633888245,&#34;g&#34;:0.34065979719161987,&#34;b&#34;:0.62534177303314209,&#34;a&#34;:1.0},&#34;position&#34;:0.0},{&#34;color&#34;:{&#34;r&#34;:0.094117648899555206,&#34;g&#34;:0.24705882370471954,&#34;b&#34;:0.53333336114883423,&#34;a&#34;:1.0},&#34;position&#34;:1.0}],&#34;transform&#34;:{&#34;m00&#34;:3.9258168689894433e-15,&#34;m01&#34;:-64.113449096679688,&#34;m02&#34;:539.85394287109375,&#34;m10&#34;:27.736114501953125,&#34;m11&#34;:1.6983472225404975e-15,&#34;m12&#34;:-1.6983472225404975e-15},&#34;opacity&#34;:1.0,&#34;blendMode&#34;:&#34;NORMAL&#34;,&#34;visible&#34;:true}" style=""/>
<rect x="686.664" y="8.60767" width="84.5554" height="19.1284" fill="#7496DD" style="fill:#7496DD;fill:color(display-p3 0.4537 0.5870 0.8684);fill-opacity:1;"/>
<rect x="771.22" y="8.60767" width="84.5554" height="19.1284" fill="#7496DD" style="fill:#7496DD;fill:color(display-p3 0.4537 0.5870 0.8684);fill-opacity:1;"/>
<rect x="855.775" y="8.60767" width="84.5554" height="19.1284" fill="#7496DD" style="fill:#7496DD;fill:color(display-p3 0.4537 0.5870 0.8684);fill-opacity:1;"/>
<rect x="940.331" y="8.60767" width="84.5554" height="19.1284" fill="#7496DD" style="fill:#7496DD;fill:color(display-p3 0.4537 0.5870 0.8684);fill-opacity:1;"/>
<rect x="1024.89" y="8.60767" width="84.5554" height="19.1284" fill="#7496DD" style="fill:#7496DD;fill:color(display-p3 0.4537 0.5870 0.8684);fill-opacity:1;"/>
<rect x="1109.44" y="8.60767" width="84.5554" height="19.1284" fill="#7496DD" style="fill:#7496DD;fill:color(display-p3 0.4537 0.5870 0.8684);fill-opacity:1;"/>
<g clip-path="url(#paint5_diamond_108_125_clip_path)" data-figma-skip-parse="true"><g transform="matrix(0 0.0138681 -0.0320567 0 687.129 13.8681)"><rect x="0" y="0" width="1072.11" height="1031.19" fill="url(#paint5_diamond_108_125)" opacity="1" shape-rendering="crispEdges"/><rect x="0" y="0" width="1072.11" height="1031.19" transform="scale(1 -1)" fill="url(#paint5_diamond_108_125)" opacity="1" shape-rendering="crispEdges"/><rect x="0" y="0" width="1072.11" height="1031.19" transform="scale(-1 1)" fill="url(#paint5_diamond_108_125)" opacity="1" shape-rendering="crispEdges"/><rect x="0" y="0" width="1072.11" height="1031.19" transform="scale(-1)" fill="url(#paint5_diamond_108_125)" opacity="1" shape-rendering="crispEdges"/></g></g><path d="M655.072 8.00001C655.072 3.58173 658.654 0 663.072 0H711.186C715.604 0 719.186 3.58172 719.186 8V27.7361H655.072V8.00001Z" data-figma-gradient-fill="{&#34;type&#34;:&#34;GRADIENT_DIAMOND&#34;,&#34;stops&#34;:[{&#34;color&#34;:{&#34;r&#34;:0.18856945633888245,&#34;g&#34;:0.34065979719161987,&#34;b&#34;:0.62534177303314209,&#34;a&#34;:1.0},&#34;position&#34;:0.0},{&#34;color&#34;:{&#34;r&#34;:0.094117648899555206,&#34;g&#34;:0.24705882370471954,&#34;b&#34;:0.53333336114883423,&#34;a&#34;:1.0},&#34;position&#34;:1.0}],&#34;stopsVar&#34;:[{&#34;color&#34;:{&#34;r&#34;:0.18856945633888245,&#34;g&#34;:0.34065979719161987,&#34;b&#34;:0.62534177303314209,&#34;a&#34;:1.0},&#34;position&#34;:0.0},{&#34;color&#34;:{&#34;r&#34;:0.094117648899555206,&#34;g&#34;:0.24705882370471954,&#34;b&#34;:0.53333336114883423,&#34;a&#34;:1.0},&#34;position&#34;:1.0}],&#34;transform&#34;:{&#34;m00&#34;:3.9258168689894433e-15,&#34;m01&#34;:-64.113449096679688,&#34;m02&#34;:719.18572998046875,&#34;m10&#34;:27.736114501953125,&#34;m11&#34;:1.6983472225404975e-15,&#34;m12&#34;:-1.6983472225404975e-15},&#34;opacity&#34;:1.0,&#34;blendMode&#34;:&#34;NORMAL&#34;,&#34;visible&#34;:true}" style=""/>
<g clip-path="url(#paint6_diamond_108_125_clip_path)" data-figma-skip-parse="true"><g transform="matrix(0 0.0138681 -0.0320567 0 771.684 13.8681)"><rect x="0" y="0" width="1072.11" height="1031.19" fill="url(#paint6_diamond_108_125)" opacity="1" shape-rendering="crispEdges"/><rect x="0" y="0" width="1072.11" height="1031.19" transform="scale(1 -1)" fill="url(#paint6_diamond_108_125)" opacity="1" shape-rendering="crispEdges"/><rect x="0" y="0" width="1072.11" height="1031.19" transform="scale(-1 1)" fill="url(#paint6_diamond_108_125)" opacity="1" shape-rendering="crispEdges"/><rect x="0" y="0" width="1072.11" height="1031.19" transform="scale(-1)" fill="url(#paint6_diamond_108_125)" opacity="1" shape-rendering="crispEdges"/></g></g><path d="M739.628 8.00001C739.628 3.58173 743.209 0 747.628 0H795.741C800.159 0 803.741 3.58172 803.741 8V27.7361H739.628V8.00001Z" data-figma-gradient-fill="{&#34;type&#34;:&#34;GRADIENT_DIAMOND&#34;,&#34;stops&#34;:[{&#34;color&#34;:{&#34;r&#34;:0.18856945633888245,&#34;g&#34;:0.34065979719161987,&#34;b&#34;:0.62534177303314209,&#34;a&#34;:1.0},&#34;position&#34;:0.0},{&#34;color&#34;:{&#34;r&#34;:0.094117648899555206,&#34;g&#34;:0.24705882370471954,&#34;b&#34;:0.53333336114883423,&#34;a&#34;:1.0},&#34;position&#34;:1.0}],&#34;stopsVar&#34;:[{&#34;color&#34;:{&#34;r&#34;:0.18856945633888245,&#34;g&#34;:0.34065979719161987,&#34;b&#34;:0.62534177303314209,&#34;a&#34;:1.0},&#34;position&#34;:0.0},{&#34;color&#34;:{&#34;r&#34;:0.094117648899555206,&#34;g&#34;:0.24705882370471954,&#34;b&#34;:0.53333336114883423,&#34;a&#34;:1.0},&#34;position&#34;:1.0}],&#34;transform&#34;:{&#34;m00&#34;:3.9258168689894433e-15,&#34;m01&#34;:-64.113449096679688,&#34;m02&#34;:803.74102783203125,&#34;m10&#34;:27.736114501953125,&#34;m11&#34;:1.6983472225404975e-15,&#34;m12&#34;:-1.6983472225404975e-15},&#34;opacity&#34;:1.0,&#34;blendMode&#34;:&#34;NORMAL&#34;,&#34;visible&#34;:true}" style=""/>
<g clip-path="url(#paint7_diamond_108_125_clip_path)" data-figma-skip-parse="true"><g transform="matrix(0 0.0138681 -0.0320567 0 940.795 13.8681)"><rect x="0" y="0" width="1072.11" height="1031.19" fill="url(#paint7_diamond_108_125)" opacity="1" shape-rendering="crispEdges"/><rect x="0" y="0" width="1072.11" height="1031.19" transform="scale(1 -1)" fill="url(#paint7_diamond_108_125)" opacity="1" shape-rendering="crispEdges"/><rect x="0" y="0" width="1072.11" height="1031.19" transform="scale(-1 1)" fill="url(#paint7_diamond_108_125)" opacity="1" shape-rendering="crispEdges"/><rect x="0" y="0" width="1072.11" height="1031.19" transform="scale(-1)" fill="url(#paint7_diamond_108_125)" opacity="1" shape-rendering="crispEdges"/></g></g><path d="M908.739 8.00001C908.739 3.58173 912.32 0 916.739 0H964.852C969.27 0 972.852 3.58172 972.852 8V27.7361H908.739V8.00001Z" data-figma-gradient-fill="{&#34;type&#34;:&#34;GRADIENT_DIAMOND&#34;,&#34;stops&#34;:[{&#34;color&#34;:{&#34;r&#34;:0.18856945633888245,&#34;g&#34;:0.34065979719161987,&#34;b&#34;:0.62534177303314209,&#34;a&#34;:1.0},&#34;position&#34;:0.0},{&#34;color&#34;:{&#34;r&#34;:0.094117648899555206,&#34;g&#34;:0.24705882370471954,&#34;b&#34;:0.53333336114883423,&#34;a&#34;:1.0},&#34;position&#34;:1.0}],&#34;stopsVar&#34;:[{&#34;color&#34;:{&#34;r&#34;:0.18856945633888245,&#34;g&#34;:0.34065979719161987,&#34;b&#34;:0.62534177303314209,&#34;a&#34;:1.0},&#34;position&#34;:0.0},{&#34;color&#34;:{&#34;r&#34;:0.094117648899555206,&#34;g&#34;:0.24705882370471954,&#34;b&#34;:0.53333336114883423,&#34;a&#34;:1.0},&#34;position&#34;:1.0}],&#34;transform&#34;:{&#34;m00&#34;:3.9258168689894433e-15,&#34;m01&#34;:-64.113449096679688,&#34;m02&#34;:972.85198974609375,&#34;m10&#34;:27.736114501953125,&#34;m11&#34;:1.6983472225404975e-15,&#34;m12&#34;:-1.6983472225404975e-15},&#34;opacity&#34;:1.0,&#34;blendMode&#34;:&#34;NORMAL&#34;,&#34;visible&#34;:true}" style=""/>
<g clip-path="url(#paint8_diamond_108_125_clip_path)" data-figma-skip-parse="true"><g transform="matrix(0 0.0138681 -0.0320567 0 1025.35 13.8681)"><rect x="0" y="0" width="1072.11" height="1031.19" fill="url(#paint8_diamond_108_125)" opacity="1" shape-rendering="crispEdges"/><rect x="0" y="0" width="1072.11" height="1031.19" transform="scale(1 -1)" fill="url(#paint8_diamond_108_125)" opacity="1" shape-rendering="crispEdges"/><rect x="0" y="0" width="1072.11" height="1031.19" transform="scale(-1 1)" fill="url(#paint8_diamond_108_125)" opacity="1" shape-rendering="crispEdges"/><rect x="0" y="0" width="1072.11" height="1031.19" transform="scale(-1)" fill="url(#paint8_diamond_108_125)" opacity="1" shape-rendering="crispEdges"/></g></g><path d="M993.294 8.00001C993.294 3.58173 996.876 0 1001.29 0H1049.41C1053.83 0 1057.41 3.58172 1057.41 8V27.7361H993.294V8.00001Z" data-figma-gradient-fill="{&#34;type&#34;:&#34;GRADIENT_DIAMOND&#34;,&#34;stops&#34;:[{&#34;color&#34;:{&#34;r&#34;:0.18856945633888245,&#34;g&#34;:0.34065979719161987,&#34;b&#34;:0.62534177303314209,&#34;a&#34;:1.0},&#34;position&#34;:0.0},{&#34;color&#34;:{&#34;r&#34;:0.094117648899555206,&#34;g&#34;:0.24705882370471954,&#34;b&#34;:0.53333336114883423,&#34;a&#34;:1.0},&#34;position&#34;:1.0}],&#34;stopsVar&#34;:[{&#34;color&#34;:{&#34;r&#34;:0.18856945633888245,&#34;g&#34;:0.34065979719161987,&#34;b&#34;:0.62534177303314209,&#34;a&#34;:1.0},&#34;position&#34;:0.0},{&#34;color&#34;:{&#34;r&#34;:0.094117648899555206,&#34;g&#34;:0.24705882370471954,&#34;b&#34;:0.53333336114883423,&#34;a&#34;:1.0},&#34;position&#34;:1.0}],&#34;transform&#34;:{&#34;m00&#34;:3.9258168689894433e-15,&#34;m01&#34;:-64.113449096679688,&#34;m02&#34;:1057.4073486328125,&#34;m10&#34;:27.736114501953125,&#34;m11&#34;:1.6983472225404975e-15,&#34;m12&#34;:-1.6983472225404975e-15},&#34;opacity&#34;:1.0,&#34;blendMode&#34;:&#34;NORMAL&#34;,&#34;visible&#34;:true}" style=""/>
<g clip-path="url(#paint9_diamond_108_125_clip_path)" data-figma-skip-parse="true"><g transform="matrix(0 0.0138681 -0.0320567 0 1109.91 13.8681)"><rect x="0" y="0" width="1072.11" height="1031.19" fill="url(#paint9_diamond_108_125)" opacity="1" shape-rendering="crispEdges"/><rect x="0" y="0" width="1072.11" height="1031.19" transform="scale(1 -1)" fill="url(#paint9_diamond_108_125)" opacity="1" shape-rendering="crispEdges"/><rect x="0" y="0" width="1072.11" height="1031.19" transform="scale(-1 1)" fill="url(#paint9_diamond_108_125)" opacity="1" shape-rendering="crispEdges"/><rect x="0" y="0" width="1072.11" height="1031.19" transform="scale(-1)" fill="url(#paint9_diamond_108_125)" opacity="1" shape-rendering="crispEdges"/></g></g><path d="M1077.85 8.00001C1077.85 3.58173 1081.43 0 1085.85 0H1133.96C1138.38 0 1141.96 3.58172 1141.96 8V27.7361H1077.85V8.00001Z" data-figma-gradient-fill="{&#34;type&#34;:&#34;GRADIENT_DIAMOND&#34;,&#34;stops&#34;:[{&#34;color&#34;:{&#34;r&#34;:0.18856945633888245,&#34;g&#34;:0.34065979719161987,&#34;b&#34;:0.62534177303314209,&#34;a&#34;:1.0},&#34;position&#34;:0.0},{&#34;color&#34;:{&#34;r&#34;:0.094117648899555206,&#34;g&#34;:0.24705882370471954,&#34;b&#34;:0.53333336114883423,&#34;a&#34;:1.0},&#34;position&#34;:1.0}],&#34;stopsVar&#34;:[{&#34;color&#34;:{&#34;r&#34;:0.18856945633888245,&#34;g&#34;:0.34065979719161987,&#34;b&#34;:0.62534177303314209,&#34;a&#34;:1.0},&#34;position&#34;:0.0},{&#34;color&#34;:{&#34;r&#34;:0.094117648899555206,&#34;g&#34;:0.24705882370471954,&#34;b&#34;:0.53333336114883423,&#34;a&#34;:1.0},&#34;position&#34;:1.0}],&#34;transform&#34;:{&#34;m00&#34;:3.9258168689894433e-15,&#34;m01&#34;:-64.113449096679688,&#34;m02&#34;:1141.9626464843750,&#34;m10&#34;:27.736114501953125,&#34;m11&#34;:1.6983472225404975e-15,&#34;m12&#34;:-1.6983472225404975e-15},&#34;opacity&#34;:1.0,&#34;blendMode&#34;:&#34;NORMAL&#34;,&#34;visible&#34;:true}" style=""/>
<defs>
<clipPath id="paint0_diamond_108_125_clip_path"><path d="M52.9634 8.00001C52.9634 3.58173 56.5451 0 60.9634 0H109.077C113.495 0 117.077 3.58172 117.077 8V27.7361H52.9634V8.00001Z"/></clipPath><clipPath id="paint1_diamond_108_125_clip_path"><path d="M137.519 8.00001C137.519 3.58173 141.1 0 145.519 0H193.632C198.05 0 201.632 3.58172 201.632 8V27.7361H137.519V8.00001Z"/></clipPath><clipPath id="paint2_diamond_108_125_clip_path"><path d="M306.629 8.00001C306.629 3.58173 310.211 0 314.629 0H362.743C367.161 0 370.743 3.58172 370.743 8V27.7361H306.629V8.00001Z"/></clipPath><clipPath id="paint3_diamond_108_125_clip_path"><path d="M391.185 8.00001C391.185 3.58173 394.767 0 399.185 0H447.298C451.717 0 455.298 3.58172 455.298 8V27.7361H391.185V8.00001Z"/></clipPath><clipPath id="paint4_diamond_108_125_clip_path"><path d="M475.74 8.00001C475.74 3.58173 479.322 0 483.74 0H531.854C536.272 0 539.854 3.58172 539.854 8V27.7361H475.74V8.00001Z"/></clipPath><clipPath id="paint5_diamond_108_125_clip_path"><path d="M655.072 8.00001C655.072 3.58173 658.654 0 663.072 0H711.186C715.604 0 719.186 3.58172 719.186 8V27.7361H655.072V8.00001Z"/></clipPath><clipPath id="paint6_diamond_108_125_clip_path"><path d="M739.628 8.00001C739.628 3.58173 743.209 0 747.628 0H795.741C800.159 0 803.741 3.58172 803.741 8V27.7361H739.628V8.00001Z"/></clipPath><clipPath id="paint7_diamond_108_125_clip_path"><path d="M908.739 8.00001C908.739 3.58173 912.32 0 916.739 0H964.852C969.27 0 972.852 3.58172 972.852 8V27.7361H908.739V8.00001Z"/></clipPath><clipPath id="paint8_diamond_108_125_clip_path"><path d="M993.294 8.00001C993.294 3.58173 996.876 0 1001.29 0H1049.41C1053.83 0 1057.41 3.58172 1057.41 8V27.7361H993.294V8.00001Z"/></clipPath><clipPath id="paint9_diamond_108_125_clip_path"><path d="M1077.85 8.00001C1077.85 3.58173 1081.43 0 1085.85 0H1133.96C1138.38 0 1141.96 3.58172 1141.96 8V27.7361H1077.85V8.00001Z"/></clipPath><linearGradient id="paint0_diamond_108_125" x1="0" y1="0" x2="500" y2="500" gradientUnits="userSpaceOnUse">
<stop stop-color="#30579F" style="stop-color:#30579F;stop-color:color(display-p3 0.1886 0.3407 0.6253);stop-opacity:1;"/>
<stop offset="1" stop-color="#183F88" style="stop-color:#183F88;stop-color:color(display-p3 0.0941 0.2471 0.5333);stop-opacity:1;"/>
</linearGradient>
<linearGradient id="paint1_diamond_108_125" x1="0" y1="0" x2="500" y2="500" gradientUnits="userSpaceOnUse">
<stop stop-color="#30579F" style="stop-color:#30579F;stop-color:color(display-p3 0.1886 0.3407 0.6253);stop-opacity:1;"/>
<stop offset="1" stop-color="#183F88" style="stop-color:#183F88;stop-color:color(display-p3 0.0941 0.2471 0.5333);stop-opacity:1;"/>
</linearGradient>
<linearGradient id="paint2_diamond_108_125" x1="0" y1="0" x2="500" y2="500" gradientUnits="userSpaceOnUse">
<stop stop-color="#30579F" style="stop-color:#30579F;stop-color:color(display-p3 0.1886 0.3407 0.6253);stop-opacity:1;"/>
<stop offset="1" stop-color="#183F88" style="stop-color:#183F88;stop-color:color(display-p3 0.0941 0.2471 0.5333);stop-opacity:1;"/>
</linearGradient>
<linearGradient id="paint3_diamond_108_125" x1="0" y1="0" x2="500" y2="500" gradientUnits="userSpaceOnUse">
<stop stop-color="#30579F" style="stop-color:#30579F;stop-color:color(display-p3 0.1886 0.3407 0.6253);stop-opacity:1;"/>
<stop offset="1" stop-color="#183F88" style="stop-color:#183F88;stop-color:color(display-p3 0.0941 0.2471 0.5333);stop-opacity:1;"/>
</linearGradient>
<linearGradient id="paint4_diamond_108_125" x1="0" y1="0" x2="500" y2="500" gradientUnits="userSpaceOnUse">
<stop stop-color="#30579F" style="stop-color:#30579F;stop-color:color(display-p3 0.1886 0.3407 0.6253);stop-opacity:1;"/>
<stop offset="1" stop-color="#183F88" style="stop-color:#183F88;stop-color:color(display-p3 0.0941 0.2471 0.5333);stop-opacity:1;"/>
</linearGradient>
<linearGradient id="paint5_diamond_108_125" x1="0" y1="0" x2="500" y2="500" gradientUnits="userSpaceOnUse">
<stop stop-color="#30579F" style="stop-color:#30579F;stop-color:color(display-p3 0.1886 0.3407 0.6253);stop-opacity:1;"/>
<stop offset="1" stop-color="#183F88" style="stop-color:#183F88;stop-color:color(display-p3 0.0941 0.2471 0.5333);stop-opacity:1;"/>
</linearGradient>
<linearGradient id="paint6_diamond_108_125" x1="0" y1="0" x2="500" y2="500" gradientUnits="userSpaceOnUse">
<stop stop-color="#30579F" style="stop-color:#30579F;stop-color:color(display-p3 0.1886 0.3407 0.6253);stop-opacity:1;"/>
<stop offset="1" stop-color="#183F88" style="stop-color:#183F88;stop-color:color(display-p3 0.0941 0.2471 0.5333);stop-opacity:1;"/>
</linearGradient>
<linearGradient id="paint7_diamond_108_125" x1="0" y1="0" x2="500" y2="500" gradientUnits="userSpaceOnUse">
<stop stop-color="#30579F" style="stop-color:#30579F;stop-color:color(display-p3 0.1886 0.3407 0.6253);stop-opacity:1;"/>
<stop offset="1" stop-color="#183F88" style="stop-color:#183F88;stop-color:color(display-p3 0.0941 0.2471 0.5333);stop-opacity:1;"/>
</linearGradient>
<linearGradient id="paint8_diamond_108_125" x1="0" y1="0" x2="500" y2="500" gradientUnits="userSpaceOnUse">
<stop stop-color="#30579F" style="stop-color:#30579F;stop-color:color(display-p3 0.1886 0.3407 0.6253);stop-opacity:1;"/>
<stop offset="1" stop-color="#183F88" style="stop-color:#183F88;stop-color:color(display-p3 0.0941 0.2471 0.5333);stop-opacity:1;"/>
</linearGradient>
<linearGradient id="paint9_diamond_108_125" x1="0" y1="0" x2="500" y2="500" gradientUnits="userSpaceOnUse">
<stop stop-color="#30579F" style="stop-color:#30579F;stop-color:color(display-p3 0.1886 0.3407 0.6253);stop-opacity:1;"/>
<stop offset="1" stop-color="#183F88" style="stop-color:#183F88;stop-color:color(display-p3 0.0941 0.2471 0.5333);stop-opacity:1;"/>
</linearGradient>
</defs>
</svg>
