<svg width="119" height="29" viewBox="0 0 119 29" fill="none" xmlns="http://www.w3.org/2000/svg">
<path d="M14.538 28.72C11.514 28.864 4.02595 29.188 1.75795 27.028C0.497953 25.804 0.893953 21.484 1.00195 19.792C1.14595 17.596 2.76595 3.16001 3.91795 2.11601C4.78195 1.36001 7.84195 1.64801 8.99395 1.72001C9.78595 1.75601 11.838 2.08001 12.306 2.72801C13.71 4.70801 8.52595 16.768 9.74995 19C10.146 19.72 17.346 19.612 18.462 20.116C19.902 20.764 19.65 27.28 18.642 28.252C17.778 29.08 15.69 28.684 14.538 28.72Z" fill="#E85234" style="fill:#E85234;fill:color(display-p3 0.9098 0.3216 0.2039);fill-opacity:1;"/>
<path d="M29.8509 19.54C31.9029 19.828 34.6029 19.54 36.6909 19.324C37.3749 19.252 38.0949 18.928 38.7789 18.964C40.6509 19.072 40.3629 21.988 40.2909 23.284C40.2189 24.616 40.2549 26.2 39.9669 27.496C39.8949 27.82 39.7869 28.18 39.4989 28.396C39.1389 28.648 32.8749 28.54 31.9029 28.54C30.4629 28.54 29.0229 28.18 27.5829 28.144C26.6469 28.108 23.7309 28.288 23.0829 27.928C22.4349 27.568 22.1109 26.776 21.9669 26.092C21.5709 24.364 21.8589 22.6 21.8949 20.872C22.0029 14.752 21.8949 8.59601 22.6509 2.47601C22.6869 2.04401 22.8669 1.64801 23.2269 1.36001C24.5589 0.316007 30.3189 1.14401 32.1189 1.18001C34.0269 1.21601 36.0069 1.10801 37.9149 0.964007C38.6709 0.892008 40.5429 0.388008 40.9749 1.28801C41.2629 1.86401 41.1549 3.84401 41.1549 4.56401C41.1549 5.46401 41.1909 7.69601 40.3989 8.27201C39.1749 9.13601 30.7509 7.08401 30.2469 8.48801C30.1749 8.70401 29.9949 9.35201 30.0309 9.56801C30.3189 10.828 38.1669 9.46001 39.0309 10.684C39.3909 11.152 39.1749 13.096 39.1389 13.744C39.1389 14.356 39.2109 16.228 38.8869 16.66C38.2029 17.524 34.0269 17.092 32.9109 16.984C31.9389 16.876 30.8589 17.236 29.9589 16.768C29.7069 17.668 29.5629 18.64 29.8509 19.54Z" fill="#E85234" style="fill:#E85234;fill:color(display-p3 0.9098 0.3216 0.2039);fill-opacity:1;"/>
<path d="M51.8812 23.968C51.7012 25.12 51.5212 26.272 51.4852 27.424C51.4852 27.856 51.3772 28.36 50.8372 28.288C49.6132 28.108 43.4572 28.864 43.0252 27.82C42.7372 27.136 45.4372 17.632 45.8332 16.444C47.1652 12.484 47.8492 8.30801 49.1812 4.34801C49.4692 3.52001 49.7212 2.69201 50.2612 2.00801C50.4772 1.72001 50.7292 1.54001 51.0892 1.43201C51.5572 1.32401 52.0252 1.46801 52.4932 1.46801C54.1132 1.46801 60.9892 0.856009 62.0692 1.46801C62.3932 1.64801 62.6812 1.97201 62.8612 2.29601C63.7612 3.84401 66.3892 20.98 67.3612 24.616C67.5412 25.264 68.2612 26.848 67.6852 27.424C67.3612 27.748 60.2332 28 59.9452 27.748C59.4052 27.28 59.2972 24.58 59.2252 23.788C56.8132 23.716 54.2572 23.68 51.8812 23.968ZM53.5732 16.336C55.0852 16.228 56.5612 16.192 58.0732 16.336C57.8932 14.932 58.1812 8.52401 56.6692 8.23601C53.8972 7.69601 53.7892 14.572 53.5732 16.336Z" fill="#E85234" style="fill:#E85234;fill:color(display-p3 0.9098 0.3216 0.2039);fill-opacity:1;"/>
<path d="M86.4991 18.028C87.8671 19.576 88.9111 21.34 90.2071 22.924C90.7111 23.536 92.4751 25.192 92.1151 26.02C91.9711 26.38 91.6831 26.56 91.3591 26.74C90.4951 27.244 85.1671 28.864 84.2671 28.576C82.7551 28.108 80.4871 22.024 78.3991 20.224C78.3631 21.376 78.7951 27.712 78.5431 28.144C78.2191 28.648 74.5831 28.432 73.9351 28.324C72.7471 28.144 71.5951 28.144 70.4071 28.144C69.9391 28.144 70.0831 27.172 70.0831 26.884C70.0111 23.212 70.3711 19.648 70.6591 16.012C70.8391 13.78 70.7671 3.05201 71.7031 1.93601C72.1711 1.36001 74.0431 1.25201 74.7991 1.18001C78.0751 0.892008 81.7831 0.892008 85.0231 1.43201C93.9511 2.94401 94.7071 14.896 86.4991 18.028ZM78.8311 7.69601C78.5791 9.60401 78.7231 11.548 78.6151 13.492C86.5711 13.24 84.3751 6.68801 78.8311 7.69601Z" fill="#E85234" style="fill:#E85234;fill:color(display-p3 0.9098 0.3216 0.2039);fill-opacity:1;"/>
<path d="M102.718 11.728C103.15 16.408 103.438 21.232 103.438 25.948C103.438 26.632 103.294 27.388 102.826 27.892C102.25 28.504 101.458 28.612 100.666 28.684C99.622 28.756 96.31 28.864 95.554 28.252C95.05 27.82 94.978 27.1 94.978 26.488C95.014 19.792 95.374 13.096 95.374 6.40001C95.374 5.60801 95.23 3.01601 95.41 2.44001C95.482 2.18801 95.626 1.90001 95.842 1.75601C96.31 1.43201 97.066 1.43201 97.606 1.39601C98.758 1.32401 102.646 1.28801 103.546 1.64801C103.942 1.82801 104.266 2.08001 104.518 2.44001C105.562 3.98801 106.606 6.61601 107.542 8.38001C108.694 10.576 109.918 12.772 111.106 14.968C111.034 13.888 110.602 2.15201 110.782 1.79201C111.25 0.964007 117.478 1.07201 117.802 1.72001C118.054 2.18801 118.018 2.76401 118.018 3.26801C118.018 9.67601 117.298 16.12 117.154 22.528C117.118 23.932 117.262 25.516 117.01 26.884C116.974 27.172 116.866 27.424 116.65 27.64C116.11 28.108 111.61 28.36 110.926 28.072C110.17 27.748 109.738 26.992 109.414 26.308C107.11 21.52 104.914 16.588 102.718 11.728Z" fill="#E85234" style="fill:#E85234;fill:color(display-p3 0.9098 0.3216 0.2039);fill-opacity:1;"/>
</svg>
