<svg width="483" height="30" viewBox="0 0 483 30" fill="none" xmlns="http://www.w3.org/2000/svg">
<path d="M12.698 27.892C10.034 28.756 7.226 28.972 4.454 28.684C3.41 28.576 0.71 28.612 0.278 27.532C-0.622 25.336 0.782 4.20401 2.222 2.47601C3.122 1.39601 6.11 1.54001 7.442 1.61201C10.034 1.75601 12.806 1.72001 15.182 3.01601C16.442 3.70001 17.378 4.81601 18.098 6.04001C22.562 13.6 22.454 24.76 12.698 27.892ZM8.81 10.72C8.414 13.456 8.162 16.192 7.946 18.964C9.026 18.856 10.142 18.82 11.114 18.28C13.814 16.804 13.994 10.936 8.81 10.72Z" fill="#E85234" style="fill:#E85234;fill:color(display-p3 0.9098 0.3216 0.2039);fill-opacity:1;"/>
<path d="M39.7773 27.352C37.9053 28.36 35.6733 28.828 33.5853 28.756C21.6333 28.396 20.1573 10.252 27.7533 3.62801C29.9493 1.72001 32.9373 0.676007 35.8533 0.820007C48.8133 1.43201 49.9653 21.916 39.7773 27.352ZM33.4413 20.728C37.4733 23.932 40.6413 12.376 37.2213 8.23601C36.3933 7.22801 34.9893 7.12001 33.9453 7.91201C31.2453 10.036 30.6693 18.496 33.4413 20.728Z" fill="#E85234" style="fill:#E85234;fill:color(display-p3 0.9098 0.3216 0.2039);fill-opacity:1;"/>
<path d="M61.3742 28.288C60.8702 28.324 59.1422 28.432 58.7822 28.144C58.1342 27.568 58.6022 20.764 58.6742 19.54C58.7462 18.136 58.6382 16.66 58.6742 15.256C58.7462 11.188 59.0342 6.50801 59.6822 2.47601C59.7902 1.79201 60.0422 1.61201 60.7262 1.57601C62.1302 1.46801 70.3022 1.18001 70.7342 2.29601C70.9862 2.90801 70.4822 5.71601 70.3382 6.50801C69.5462 10.972 69.0422 15.508 68.7902 20.044C68.6822 22.024 68.9342 25.66 68.5022 27.388C68.3942 27.748 68.2862 28 67.9262 28.144C67.5302 28.324 62.2022 28.252 61.3742 28.288Z" fill="#E85234" style="fill:#E85234;fill:color(display-p3 0.9098 0.3216 0.2039);fill-opacity:1;"/>
<path d="M92.148 16.66C92.148 17.884 92.004 27.064 91.788 27.604C91.248 28.9 83.868 28.792 83.04 27.82C82.824 27.532 82.788 27.136 82.752 26.812C82.608 25.228 82.716 23.5 82.752 21.88C82.824 18.532 82.896 15.148 82.896 11.8C82.896 9.42401 82.752 4.85201 82.968 2.62001C83.04 1.97201 83.436 1.28801 84.084 1.07201C84.984 0.748008 91.392 1.07201 92.076 1.72001C92.976 2.54801 92.292 6.97601 92.292 8.30801C94.2 8.23601 96.216 8.41601 98.124 8.48801C98.16 6.94001 97.872 2.69201 98.916 1.64801C99.636 0.892009 106.116 1.18001 107.088 1.90001C107.484 2.22401 107.592 2.65601 107.628 3.16001C107.736 4.78001 107.484 6.50801 107.376 8.12801C107.088 12.16 106.8 16.192 106.692 20.224C106.656 21.592 107.196 26.848 106.44 27.604C105.612 28.468 103.236 28.324 102.084 28.288C101.076 28.252 99.852 28.36 98.916 27.928C97.152 27.064 97.692 19.036 97.692 17.128C96.684 16.804 93.372 16.696 92.148 16.66Z" fill="#E85234" style="fill:#E85234;fill:color(display-p3 0.9098 0.3216 0.2039);fill-opacity:1;"/>
<path d="M118.543 23.968C118.363 25.12 118.183 26.272 118.147 27.424C118.147 27.856 118.039 28.36 117.499 28.288C116.275 28.108 110.119 28.864 109.687 27.82C109.399 27.136 112.099 17.632 112.495 16.444C113.827 12.484 114.511 8.30801 115.843 4.34801C116.131 3.52001 116.383 2.69201 116.923 2.00801C117.139 1.72001 117.391 1.54001 117.751 1.43201C118.219 1.32401 118.687 1.46801 119.155 1.46801C120.775 1.46801 127.651 0.856009 128.731 1.46801C129.055 1.64801 129.343 1.97201 129.523 2.29601C130.423 3.84401 133.051 20.98 134.023 24.616C134.203 25.264 134.923 26.848 134.347 27.424C134.023 27.748 126.895 28 126.607 27.748C126.067 27.28 125.959 24.58 125.887 23.788C123.475 23.716 120.919 23.68 118.543 23.968ZM120.235 16.336C121.747 16.228 123.223 16.192 124.735 16.336C124.555 14.932 124.843 8.52401 123.331 8.23601C120.559 7.69601 120.451 14.572 120.235 16.336Z" fill="#E85234" style="fill:#E85234;fill:color(display-p3 0.9098 0.3216 0.2039);fill-opacity:1;"/>
<path d="M148.894 27.82C147.454 29.224 143.566 28.828 141.802 28.252C141.19 28.036 140.686 27.82 140.254 27.316C139.174 26.092 138.202 23.608 137.842 21.988C137.05 18.604 133.486 5.82401 133.702 3.34001C133.738 2.83601 133.99 2.29601 134.386 1.97201C135.43 1.14401 141.082 0.100008 142.162 1.32401C142.81 2.04401 142.99 3.48401 143.134 4.42001C143.674 7.87601 143.998 11.368 144.43 14.824C144.466 15.256 144.61 16.696 144.754 16.984C144.97 17.488 145.258 16.264 145.294 16.156C145.906 13.888 147.67 1.97201 148.858 1.14401C149.614 0.640008 151.918 1.07201 152.818 1.25201C153.61 1.39601 155.05 1.72001 155.554 2.36801C156.454 3.52001 155.194 7.55201 154.87 8.92001C153.898 12.88 151.45 25.336 148.894 27.82Z" fill="#E85234" style="fill:#E85234;fill:color(display-p3 0.9098 0.3216 0.2039);fill-opacity:1;"/>
<path d="M166.293 19.54C168.345 19.828 171.045 19.54 173.133 19.324C173.817 19.252 174.537 18.928 175.221 18.964C177.093 19.072 176.805 21.988 176.733 23.284C176.661 24.616 176.697 26.2 176.409 27.496C176.337 27.82 176.229 28.18 175.941 28.396C175.581 28.648 169.317 28.54 168.345 28.54C166.905 28.54 165.465 28.18 164.025 28.144C163.089 28.108 160.173 28.288 159.525 27.928C158.877 27.568 158.553 26.776 158.409 26.092C158.013 24.364 158.301 22.6 158.337 20.872C158.445 14.752 158.337 8.59601 159.093 2.47601C159.129 2.04401 159.309 1.64801 159.669 1.36001C161.001 0.316007 166.761 1.14401 168.561 1.18001C170.469 1.21601 172.449 1.10801 174.357 0.964008C175.113 0.892009 176.985 0.388009 177.417 1.28801C177.705 1.86401 177.597 3.84401 177.597 4.56401C177.597 5.46401 177.633 7.69601 176.841 8.27201C175.617 9.13601 167.193 7.08401 166.689 8.48801C166.617 8.70401 166.437 9.35201 166.473 9.56801C166.761 10.828 174.609 9.46001 175.473 10.684C175.833 11.152 175.617 13.096 175.581 13.744C175.581 14.356 175.653 16.228 175.329 16.66C174.645 17.524 170.469 17.092 169.353 16.984C168.381 16.876 167.301 17.236 166.401 16.768C166.149 17.668 166.005 18.64 166.293 19.54Z" fill="#E85234" style="fill:#E85234;fill:color(display-p3 0.9098 0.3216 0.2039);fill-opacity:1;"/>
<path d="M198.34 18.676C198.412 20.08 199.312 27.208 198.736 27.856C197.764 28.972 190.384 28.972 189.628 27.604C189.34 27.064 189.844 10.036 189.844 7.98401C189.844 6.40001 189.412 2.08001 191.284 1.54001C193.084 1.03601 195.676 1.03601 197.584 1.00001C199.78 0.964008 202.048 1.10801 204.172 1.75601C212.704 4.42001 212.236 14.572 204.1 17.596C202.264 18.28 200.284 18.424 198.34 18.676ZM197.584 11.908C205.324 12.628 203.452 5.21201 197.584 7.51601V11.908Z" fill="#E85234" style="fill:#E85234;fill:color(display-p3 0.9098 0.3216 0.2039);fill-opacity:1;"/>
<path d="M220.856 19.54C222.908 19.828 225.608 19.54 227.696 19.324C228.38 19.252 229.1 18.928 229.784 18.964C231.656 19.072 231.368 21.988 231.296 23.284C231.224 24.616 231.26 26.2 230.972 27.496C230.9 27.82 230.792 28.18 230.504 28.396C230.144 28.648 223.88 28.54 222.908 28.54C221.468 28.54 220.028 28.18 218.588 28.144C217.652 28.108 214.736 28.288 214.088 27.928C213.44 27.568 213.116 26.776 212.972 26.092C212.576 24.364 212.864 22.6 212.9 20.872C213.008 14.752 212.9 8.59601 213.656 2.47601C213.692 2.04401 213.872 1.64801 214.232 1.36001C215.564 0.316007 221.324 1.14401 223.124 1.18001C225.032 1.21601 227.012 1.10801 228.92 0.964008C229.676 0.892009 231.548 0.388009 231.98 1.28801C232.268 1.86401 232.16 3.84401 232.16 4.56401C232.16 5.46401 232.196 7.69601 231.404 8.27201C230.18 9.13601 221.756 7.08401 221.252 8.48801C221.18 8.70401 221 9.35201 221.036 9.56801C221.324 10.828 229.172 9.46001 230.036 10.684C230.396 11.152 230.18 13.096 230.144 13.744C230.144 14.356 230.216 16.228 229.892 16.66C229.208 17.524 225.032 17.092 223.916 16.984C222.944 16.876 221.864 17.236 220.964 16.768C220.712 17.668 220.568 18.64 220.856 19.54Z" fill="#E85234" style="fill:#E85234;fill:color(display-p3 0.9098 0.3216 0.2039);fill-opacity:1;"/>
<path d="M251.282 18.028C252.65 19.576 253.694 21.34 254.99 22.924C255.494 23.536 257.258 25.192 256.898 26.02C256.754 26.38 256.466 26.56 256.142 26.74C255.278 27.244 249.95 28.864 249.05 28.576C247.538 28.108 245.27 22.024 243.182 20.224C243.146 21.376 243.578 27.712 243.326 28.144C243.002 28.648 239.366 28.432 238.718 28.324C237.53 28.144 236.378 28.144 235.19 28.144C234.722 28.144 234.866 27.172 234.866 26.884C234.794 23.212 235.154 19.648 235.442 16.012C235.622 13.78 235.55 3.05201 236.486 1.93601C236.954 1.36001 238.826 1.25201 239.582 1.18001C242.858 0.892009 246.566 0.892009 249.806 1.43201C258.734 2.94401 259.49 14.896 251.282 18.028ZM243.614 7.69601C243.362 9.60401 243.506 11.548 243.398 13.492C251.354 13.24 249.158 6.68801 243.614 7.69601Z" fill="#E85234" style="fill:#E85234;fill:color(display-p3 0.9098 0.3216 0.2039);fill-opacity:1;"/>
<path d="M268.905 12.232C271.497 13.276 277.221 8.99201 277.761 14.572C277.833 15.364 277.941 17.452 277.617 18.1C276.609 20.008 270.345 18.712 269.409 19.648C268.653 20.404 270.273 26.632 269.625 27.928C269.121 28.936 267.609 29.008 266.601 29.116C265.773 29.188 262.749 29.368 262.101 29.152C261.237 28.864 260.625 27.964 260.625 27.064C260.625 19.36 260.013 11.872 259.401 4.20401C259.329 3.48401 259.689 2.72801 260.337 2.36801C261.741 1.61201 276.861 0.424008 277.761 1.54001C278.337 2.22401 278.049 4.92401 278.085 5.89601C278.121 6.76001 278.193 7.91201 277.437 8.52401C276.213 9.49601 270.309 8.70401 268.473 9.53201C268.185 10.18 268.581 11.62 268.905 12.232Z" fill="#E85234" style="fill:#E85234;fill:color(display-p3 0.9098 0.3216 0.2039);fill-opacity:1;"/>
<path d="M288.953 19.54C291.005 19.828 293.705 19.54 295.793 19.324C296.477 19.252 297.197 18.928 297.881 18.964C299.753 19.072 299.465 21.988 299.393 23.284C299.321 24.616 299.357 26.2 299.069 27.496C298.997 27.82 298.889 28.18 298.601 28.396C298.241 28.648 291.977 28.54 291.005 28.54C289.565 28.54 288.125 28.18 286.685 28.144C285.749 28.108 282.833 28.288 282.185 27.928C281.537 27.568 281.213 26.776 281.069 26.092C280.673 24.364 280.961 22.6 280.997 20.872C281.105 14.752 280.997 8.59601 281.753 2.47601C281.789 2.04401 281.969 1.64801 282.329 1.36001C283.661 0.316007 289.421 1.14401 291.221 1.18001C293.129 1.21601 295.109 1.10801 297.017 0.964008C297.773 0.892009 299.645 0.388009 300.077 1.28801C300.365 1.86401 300.257 3.84401 300.257 4.56401C300.257 5.46401 300.293 7.69601 299.501 8.27201C298.277 9.13601 289.853 7.08401 289.349 8.48801C289.277 8.70401 289.097 9.35201 289.133 9.56801C289.421 10.828 297.269 9.46001 298.133 10.684C298.493 11.152 298.277 13.096 298.241 13.744C298.241 14.356 298.313 16.228 297.989 16.66C297.305 17.524 293.129 17.092 292.013 16.984C291.041 16.876 289.961 17.236 289.061 16.768C288.809 17.668 288.665 18.64 288.953 19.54Z" fill="#E85234" style="fill:#E85234;fill:color(display-p3 0.9098 0.3216 0.2039);fill-opacity:1;"/>
<path d="M319.776 26.668C317.94 27.928 315.564 28.54 313.332 28.504C298.464 28.36 299.22 2.51201 312.972 1.39601C316.68 1.10801 319.56 2.62001 321.54 5.78801C322.44 7.22801 324.06 11.692 322.368 12.88C321.792 13.312 321 13.384 320.316 13.492C319.344 13.636 316.752 13.996 315.888 13.78C314.124 13.348 315.168 9.71201 313.98 8.92001C313.296 8.45201 312.144 8.77601 311.568 9.28001C310.596 10.18 310.524 12.088 310.452 13.312C310.344 15.256 310.128 20.188 312.288 21.16C313.332 21.628 314.16 20.476 314.52 19.648C314.736 19.108 314.952 17.596 315.348 17.272C315.996 16.732 318.336 17.056 319.2 17.092C320.244 17.128 321.288 16.912 322.296 16.948C322.656 16.948 323.016 17.056 323.232 17.38C323.628 18.028 323.196 20.872 323.052 21.7C322.692 23.824 321.54 25.48 319.776 26.668Z" fill="#E85234" style="fill:#E85234;fill:color(display-p3 0.9098 0.3216 0.2039);fill-opacity:1;"/>
<path d="M338.77 7.84001C338.95 10.648 339.022 13.456 339.274 16.228C339.598 19.648 340.282 23.896 340.138 27.28C340.138 27.496 340.102 27.712 339.958 27.892C339.454 28.468 336.214 28.504 335.386 28.54C334.738 28.576 332.722 28.648 332.218 28.396C331.174 27.892 331.462 25.3 331.462 24.328V15.652C331.462 13.276 331.066 10.9 331.102 8.52401C330.238 8.63201 326.062 9.42401 325.594 8.92001C325.198 8.48801 324.982 2.22401 325.45 1.75601C325.594 1.61201 325.846 1.50401 326.062 1.46801C329.59 0.784008 333.406 1.21601 336.97 1.03601C338.914 0.928008 340.894 0.640008 342.838 0.784008C343.306 0.820007 344.35 0.784008 344.638 1.25201C344.71 1.39601 344.674 6.04001 344.674 6.65201C344.674 9.10001 340.57 7.80401 338.77 7.84001Z" fill="#E85234" style="fill:#E85234;fill:color(display-p3 0.9098 0.3216 0.2039);fill-opacity:1;"/>
<path d="M364.84 18.676C364.912 20.08 365.812 27.208 365.236 27.856C364.264 28.972 356.884 28.972 356.128 27.604C355.84 27.064 356.344 10.036 356.344 7.98401C356.344 6.40001 355.912 2.08001 357.784 1.54001C359.584 1.03601 362.176 1.03601 364.084 1.00001C366.28 0.964008 368.548 1.10801 370.672 1.75601C379.204 4.42001 378.736 14.572 370.6 17.596C368.764 18.28 366.784 18.424 364.84 18.676ZM364.084 11.908C371.824 12.628 369.952 5.21201 364.084 7.51601V11.908Z" fill="#E85234" style="fill:#E85234;fill:color(display-p3 0.9098 0.3216 0.2039);fill-opacity:1;"/>
<path d="M382.136 28.288C381.632 28.324 379.904 28.432 379.544 28.144C378.896 27.568 379.364 20.764 379.436 19.54C379.508 18.136 379.4 16.66 379.436 15.256C379.508 11.188 379.796 6.50801 380.444 2.47601C380.552 1.79201 380.804 1.61201 381.488 1.57601C382.892 1.46801 391.064 1.18001 391.496 2.29601C391.748 2.90801 391.244 5.71601 391.1 6.50801C390.308 10.972 389.804 15.508 389.552 20.044C389.444 22.024 389.696 25.66 389.264 27.388C389.156 27.748 389.048 28 388.688 28.144C388.292 28.324 382.964 28.252 382.136 28.288Z" fill="#E85234" style="fill:#E85234;fill:color(display-p3 0.9098 0.3216 0.2039);fill-opacity:1;"/>
<path d="M406.797 7.84001C406.977 10.648 407.049 13.456 407.301 16.228C407.625 19.648 408.309 23.896 408.165 27.28C408.165 27.496 408.129 27.712 407.985 27.892C407.481 28.468 404.241 28.504 403.413 28.54C402.765 28.576 400.749 28.648 400.245 28.396C399.201 27.892 399.489 25.3 399.489 24.328V15.652C399.489 13.276 399.093 10.9 399.129 8.52401C398.265 8.63201 394.089 9.42401 393.621 8.92001C393.225 8.48801 393.009 2.22401 393.477 1.75601C393.621 1.61201 393.873 1.50401 394.089 1.46801C397.617 0.784008 401.433 1.21601 404.997 1.03601C406.941 0.928008 408.921 0.640008 410.865 0.784008C411.333 0.820007 412.377 0.784008 412.665 1.25201C412.737 1.39601 412.701 6.04001 412.701 6.65201C412.701 9.10001 408.597 7.80401 406.797 7.84001Z" fill="#E85234" style="fill:#E85234;fill:color(display-p3 0.9098 0.3216 0.2039);fill-opacity:1;"/>
<path d="M431.643 26.668C429.807 27.928 427.431 28.54 425.199 28.504C410.331 28.36 411.087 2.51201 424.839 1.39601C428.547 1.10801 431.427 2.62001 433.407 5.78801C434.307 7.22801 435.927 11.692 434.235 12.88C433.659 13.312 432.867 13.384 432.183 13.492C431.211 13.636 428.619 13.996 427.755 13.78C425.991 13.348 427.035 9.71201 425.847 8.92001C425.163 8.45201 424.011 8.77601 423.435 9.28001C422.463 10.18 422.391 12.088 422.319 13.312C422.211 15.256 421.995 20.188 424.155 21.16C425.199 21.628 426.027 20.476 426.387 19.648C426.603 19.108 426.819 17.596 427.215 17.272C427.863 16.732 430.203 17.056 431.067 17.092C432.111 17.128 433.155 16.912 434.163 16.948C434.523 16.948 434.883 17.056 435.099 17.38C435.495 18.028 435.063 20.872 434.919 21.7C434.559 23.824 433.407 25.48 431.643 26.668Z" fill="#E85234" style="fill:#E85234;fill:color(display-p3 0.9098 0.3216 0.2039);fill-opacity:1;"/>
<path d="M447.613 16.66C447.613 17.884 447.469 27.064 447.253 27.604C446.713 28.9 439.333 28.792 438.505 27.82C438.289 27.532 438.253 27.136 438.217 26.812C438.073 25.228 438.181 23.5 438.217 21.88C438.289 18.532 438.361 15.148 438.361 11.8C438.361 9.42401 438.217 4.85201 438.433 2.62001C438.505 1.97201 438.901 1.28801 439.549 1.07201C440.449 0.748008 446.857 1.07201 447.541 1.72001C448.441 2.54801 447.757 6.97601 447.757 8.30801C449.665 8.23601 451.681 8.41601 453.589 8.48801C453.625 6.94001 453.337 2.69201 454.381 1.64801C455.101 0.892009 461.581 1.18001 462.553 1.90001C462.949 2.22401 463.057 2.65601 463.093 3.16001C463.201 4.78001 462.949 6.50801 462.841 8.12801C462.553 12.16 462.265 16.192 462.157 20.224C462.121 21.592 462.661 26.848 461.905 27.604C461.077 28.468 458.701 28.324 457.549 28.288C456.541 28.252 455.317 28.36 454.381 27.928C452.617 27.064 453.157 19.036 453.157 17.128C452.149 16.804 448.837 16.696 447.613 16.66Z" fill="#E85234" style="fill:#E85234;fill:color(display-p3 0.9098 0.3216 0.2039);fill-opacity:1;"/>
<path d="M475.844 19.324C474.872 20.44 471.128 20.548 469.904 19.792C468.68 19.036 469.148 16.624 469.4 15.472C469.58 14.752 469.76 13.816 470.3 13.276C471.272 12.304 477.176 12.052 475.736 9.82001C474.008 7.19201 467.312 9.56801 466.16 7.98401C465.692 7.30001 465.8 4.16801 465.764 3.19601C465.728 2.62001 465.8 1.93601 466.304 1.54001C467.096 0.928008 475.736 1.25201 477.14 1.46801C478.436 1.64801 479.768 1.97201 480.74 2.90801C483.872 5.89601 482.648 12.484 479.084 14.644C478.544 14.968 476.6 16.012 476.348 16.444C475.988 17.128 476.708 18.352 475.844 19.324ZM475.556 28.18C474.584 28.972 472.028 28.864 470.876 28.54C467.78 27.676 468.284 23.032 470.3 22.384C473.468 21.376 477.572 21.556 476.78 25.984C476.636 26.812 476.204 27.64 475.556 28.18Z" fill="#E85234" style="fill:#E85234;fill:color(display-p3 0.9098 0.3216 0.2039);fill-opacity:1;"/>
</svg>
